<svg width="20" height="20" viewBox="0 0 20 20" fill="none" xmlns="http://www.w3.org/2000/svg">
<g id="Frame" clip-path="url(#clip0_0_578)">
<g id="Group">
<path id="Vector" d="M12.667 1.28044C12.667 1.52244 12.667 1.76444 12.667 1.99863C12.667 2.21721 12.6435 2.23282 12.4405 2.17037C11.9407 2.01424 11.4331 1.91276 10.9177 1.85031C9.58224 1.70199 8.27806 1.8425 7.03636 2.34992C4.31086 3.47404 2.58497 5.48028 1.96802 8.36085C1.53069 10.3983 1.85869 12.3577 2.9442 14.1532C4.18591 16.2141 5.98208 17.5256 8.34053 18.0174C10.3944 18.4467 12.3468 18.1345 14.1586 17.0494C16.2203 15.816 17.5244 14.0127 18.0321 11.663C18.3288 10.3046 18.2507 8.95413 17.8524 7.62705C17.7665 7.33821 17.7665 7.33821 18.0711 7.33821C18.5241 7.33821 18.977 7.33821 19.4378 7.33821C19.5783 7.33821 19.6564 7.37724 19.6955 7.52556C20.4764 10.8979 19.7736 13.9346 17.5244 16.5654C16.0563 18.2906 14.1742 19.3757 11.9485 19.7972C8.73101 20.3983 5.85713 19.6255 3.38934 17.4787C1.54631 15.8784 0.437371 13.8409 0.109374 11.4288C-0.312336 8.39988 0.492037 5.69886 2.51468 3.38817C4.11562 1.56147 6.15389 0.476382 8.5592 0.109481C9.87119 -0.0856791 11.1754 -0.0154214 12.4639 0.312447C12.6123 0.351479 12.6748 0.413931 12.667 0.562252C12.6592 0.804251 12.667 1.04625 12.667 1.28044Z" fill="white"/>
<path id="Vector_2" d="M13.768 9.76598C14.057 9.89869 14.2913 10.0626 14.4787 10.2812C15.2753 11.1789 15.0176 12.5216 13.932 13.1071C13.565 13.3101 13.1589 13.4194 12.745 13.4584C11.9797 13.5365 11.23 13.4974 10.5115 13.193C9.58218 12.7949 9.13704 11.9284 9.41037 10.9994C9.56656 10.4608 9.92579 10.086 10.4178 9.84405C10.574 9.76598 10.5662 9.73476 10.4334 9.64108C9.60561 9.0556 9.44161 8.00174 10.0586 7.26013C10.3475 6.90884 10.7458 6.72149 11.1753 6.62C11.9328 6.44046 12.6903 6.44826 13.4322 6.7371C14.0648 6.9791 14.4787 7.41626 14.5724 8.09541C14.6661 8.76676 14.4162 9.3054 13.8618 9.69572C13.8305 9.71134 13.8149 9.72695 13.768 9.76598ZM13.2682 11.3429C13.2682 10.9682 13.0886 10.6949 12.7372 10.57C12.3545 10.4373 11.9562 10.4373 11.5736 10.5622C11.1909 10.6871 11.0191 10.9447 11.0113 11.3351C11.0035 11.7176 11.2065 12.0064 11.5814 12.1235C11.9641 12.2406 12.3467 12.2406 12.7294 12.1157C13.0886 11.983 13.2682 11.7254 13.2682 11.3429ZM12.1671 9.1805C12.2999 9.18831 12.4561 9.16489 12.6122 9.11024C12.9168 9.00876 13.073 8.80579 13.0808 8.49354C13.0964 8.12664 12.9637 7.90806 12.6513 7.78316C12.3545 7.66606 12.0422 7.66606 11.7298 7.74412C11.3549 7.84561 11.1753 8.08761 11.1831 8.47012C11.1909 8.82141 11.3862 9.04779 11.761 9.14928C11.886 9.1727 12.0031 9.1727 12.1671 9.1805Z" fill="white"/>
<path id="Vector_3" d="M8.09842 10C8.09842 11.0539 8.09842 12.1077 8.09842 13.1538C8.09842 13.4114 8.0828 13.427 7.82509 13.427C7.40338 13.427 6.98167 13.4192 6.55996 13.427C6.38034 13.427 6.32567 13.3646 6.32567 13.1928C6.33348 11.5535 6.32567 9.92193 6.32567 8.28259C6.32567 8.00936 6.32567 8.00936 6.06015 8.00936C5.80244 8.00936 5.53692 8.00156 5.27921 8.00936C5.13083 8.00936 5.05273 7.96253 5.05273 7.79859C5.06054 7.45511 5.06054 7.11163 5.05273 6.76815C5.05273 6.61982 5.1074 6.55737 5.26359 6.55737C6.13825 6.56518 7.02072 6.56518 7.89537 6.55737C8.0828 6.55737 8.10623 6.65105 8.10623 6.79937C8.09061 7.87665 8.09842 8.93833 8.09842 10Z" fill="white"/>
<path id="Vector_4" d="M17.3292 1.72537C17.3292 1.97517 17.337 2.21717 17.3292 2.46698C17.3214 2.63091 17.3917 2.67775 17.5478 2.67775C18.032 2.66994 18.524 2.67775 19.0082 2.66994C19.1878 2.66994 19.2503 2.73239 19.2425 2.90413C19.2347 3.232 19.2347 3.55207 19.2425 3.87993C19.2425 4.03606 19.1878 4.09851 19.0238 4.09851C18.5475 4.09071 18.0789 4.09851 17.6025 4.09851C17.3292 4.09851 17.3292 4.09851 17.3292 4.37954C17.3292 4.84793 17.3214 5.31631 17.3292 5.7847C17.3292 5.94863 17.2823 6.01889 17.1027 6.01108C16.7747 6.00327 16.4389 6.00327 16.1109 6.01108C15.9391 6.01889 15.8844 5.95644 15.8844 5.7847C15.8922 5.3007 15.8766 4.8089 15.8922 4.3249C15.8922 4.14535 15.8376 4.09071 15.658 4.09071C15.1738 4.09851 14.6974 4.09071 14.2132 4.09851C14.057 4.09851 13.9945 4.05167 14.0024 3.88774C14.0102 3.55987 14.0102 3.2242 14.0024 2.89633C13.9945 2.71678 14.0726 2.66994 14.2366 2.67775C14.713 2.68555 15.1816 2.66994 15.658 2.68555C15.8376 2.68555 15.9001 2.63091 15.8922 2.45136C15.8844 1.96737 15.8922 1.49118 15.8844 1.00718C15.8844 0.835438 15.9391 0.757374 16.1187 0.76518C16.4467 0.772986 16.7669 0.772986 17.0949 0.76518C17.2745 0.757374 17.337 0.835438 17.3292 1.00718C17.3292 1.24137 17.3292 1.48337 17.3292 1.72537Z" fill="white"/>
</g>
</g>
<defs>
<clipPath id="clip0_0_578">
<rect width="20" height="20" fill="white"/>
</clipPath>
</defs>
</svg>
