<svg width="10" height="6" viewBox="0 0 10 6" fill="none" xmlns="http://www.w3.org/2000/svg">
<path id="Path 1625" d="M0.160015 0.500488L0.488006 0.165518C0.538464 0.114061 0.59868 0.0731837 0.665129 0.0452782C0.731577 0.0173723 0.802925 0.00299946 0.874995 0.00299946C0.947066 0.00299947 1.01841 0.0173723 1.08486 0.0452782C1.15131 0.0731837 1.21153 0.114061 1.26198 0.165518L4.99988 3.96218L8.74078 0.162519C8.79123 0.111062 8.85145 0.0701846 8.9179 0.0422791C8.98435 0.0143737 9.05569 3.94283e-07 9.12776 4.00584e-07C9.19984 4.06885e-07 9.27118 0.0143737 9.33763 0.0422792C9.40408 0.0701847 9.4643 0.111062 9.51475 0.162519L9.83974 0.500489C9.94248 0.605498 10 0.746556 10 0.893454C10 1.04035 9.94248 1.18141 9.83974 1.28642L5.38587 5.82202C5.33638 5.87559 5.27682 5.91888 5.21059 5.94942C5.14436 5.97996 5.07276 5.99715 4.99988 6C4.92632 5.99767 4.85396 5.98074 4.78701 5.95018C4.72005 5.91962 4.65985 5.87606 4.60989 5.82202L0.160015 1.29342C0.0573697 1.18716 4.33163e-07 1.04519 4.46079e-07 0.897453C4.58994e-07 0.749715 0.0573697 0.606751 0.160015 0.500488Z" fill="#F0F0F0"/>
</svg>
