<svg width="10" height="16" viewBox="0 0 10 16" fill="none" xmlns="http://www.w3.org/2000/svg">
<g id="Group">
<path id="Vector" d="M9.6 0.276611C9.6 1.22919 9.6 2.18317 9.6 3.13575C9.00127 3.13152 8.3958 3.08361 7.80211 3.13434C6.80478 3.21748 6.2851 3.66277 6.16232 4.49697C6.10009 4.92253 6.12702 5.35655 6.09506 5.78633C6.07825 6.0132 6.18756 6.07802 6.44825 6.07521C7.36989 6.06534 8.29321 6.07521 9.21485 6.06816C9.4604 6.06675 9.5361 6.12171 9.4806 6.33731C9.2855 7.09824 9.10218 7.86199 8.934 8.62856C8.88859 8.83288 8.78431 8.89207 8.54885 8.88784C7.88453 8.87798 7.21853 8.88361 6.5542 8.88361C6.09842 8.88361 6.09675 8.88361 6.09675 9.26831C6.09675 11.344 6.09169 13.4196 6.10178 15.4967C6.10346 15.7334 6.02106 15.8081 5.73683 15.8039C4.88919 15.7898 4.04155 15.7997 3.19559 15.7997C2.73644 15.7997 2.73643 15.7997 2.73643 15.4192C2.73643 13.3435 2.73139 11.2679 2.74316 9.19081C2.74484 8.93716 2.65066 8.87234 2.36138 8.87798C1.68697 8.89348 1.0092 8.87516 0.334785 8.88784C0.0791467 8.89207 -0.00326151 8.81738 0.000102157 8.60883C0.0101932 7.85354 0.0101932 7.09965 0.000102157 6.34435C-0.00326151 6.13721 0.075783 6.05971 0.334785 6.06534C1.03106 6.07802 1.72901 6.06252 2.42529 6.0738C2.65907 6.07662 2.75157 6.02307 2.73979 5.81733C2.72129 5.46787 2.70784 5.11418 2.74148 4.76612C2.80371 4.12496 2.82053 3.46971 3.00217 2.84969C3.42936 1.38983 4.79331 0.266747 6.95951 0.292112C7.84247 0.303385 8.72208 0.282248 9.6 0.276611Z" fill="white"/>
</g>
</svg>
