<svg width="16" height="16" viewBox="0 0 16 16" fill="none" xmlns="http://www.w3.org/2000/svg">
<g id="Group">
<path id="Vector" d="M16 15.8037C14.8544 15.8037 13.7154 15.8037 12.5648 15.8037C12.5648 15.7716 12.5648 15.741 12.5648 15.7105C12.5648 13.8412 12.5665 11.9734 12.5632 10.1041C12.5632 9.70547 12.5201 9.31007 12.3844 8.92913C12.2437 8.53854 12.0185 8.21225 11.6278 8.01937C11.2818 7.849 10.911 7.81363 10.5335 7.86828C9.89451 7.96151 9.46243 8.32638 9.15781 8.86162C8.98068 9.17505 8.93763 9.51259 8.93598 9.85978C8.93432 11.8079 8.93598 13.7576 8.93598 15.7057C8.93598 15.7362 8.93598 15.7683 8.93598 15.8021C7.79038 15.8021 6.65139 15.8021 5.50745 15.8021C5.50745 12.3463 5.50745 8.89377 5.50745 5.43638C6.64808 5.43638 7.78706 5.43638 8.93432 5.43638C8.93432 5.91055 8.93432 6.38471 8.93432 6.85888C8.93929 6.86048 8.94426 6.86209 8.94922 6.8637C9.00551 6.78815 9.0618 6.71422 9.11808 6.63867C9.44753 6.2063 9.8316 5.83339 10.3233 5.57783C10.8083 5.32548 11.3315 5.21135 11.8778 5.19528C12.4556 5.1776 13.0201 5.24672 13.5614 5.44924C14.3528 5.74499 14.9487 6.26095 15.361 6.97782C15.6887 7.55003 15.8675 8.16725 15.9371 8.81501C15.9735 9.15898 15.9967 9.50616 15.9967 9.85335C16.0016 11.8047 16 13.756 16 15.7073C16 15.7378 16 15.77 16 15.8037Z" fill="white"/>
<path id="Vector_2" d="M0.00939941 5.43799C1.15169 5.43799 2.29067 5.43799 3.43462 5.43799C3.43462 8.89216 3.43462 12.3463 3.43462 15.8037C2.29233 15.8037 1.15335 15.8037 0.00939941 15.8037C0.00939941 12.3479 0.00939941 8.89537 0.00939941 5.43799Z" fill="white"/>
<path id="Vector_3" d="M1.86346 3.85831C1.35025 3.85349 0.916513 3.7233 0.558926 3.3954C0.27087 3.1318 0.103665 2.8039 0.0357895 2.42778C-0.0420188 2.00023 0.00267962 1.58393 0.212928 1.19656C0.50595 0.653282 0.984389 0.367175 1.60354 0.293238C1.92305 0.254662 2.2376 0.281986 2.54055 0.388071C2.98919 0.54559 3.31533 0.834911 3.50736 1.25764C3.74741 1.78485 3.76728 2.3217 3.52392 2.85051C3.24414 3.45648 2.73921 3.76509 2.07205 3.84224C1.99259 3.85349 1.91312 3.8551 1.86346 3.85831Z" fill="white"/>
</g>
</svg>
