<svg width="18" height="16" viewBox="0 0 18 16" fill="none" xmlns="http://www.w3.org/2000/svg">
<g id="Frame" clip-path="url(#clip0_0_506)">
<g id="bhHJUQ_2_">
<g id="Group">
<path id="Vector" d="M0.833008 2.42718C1.17745 1.08586 2.26 0.49504 3.42456 0.0319657C3.58858 -0.0319066 3.86742 0.0319657 4.03144 0.143742C4.29388 0.319391 4.55631 0.558912 4.73674 0.814401C5.34362 1.72458 5.9341 2.63476 6.49178 3.57688C6.77061 4.05592 6.705 4.53496 6.34415 4.98207C6.34415 4.99803 6.32775 4.99803 6.32775 5.014C5.60605 5.94015 5.44203 6.25951 6.32775 7.45712C7.34469 8.83037 8.59126 9.99604 10.0347 10.9541C10.8384 11.497 11.2648 11.497 12.0193 10.8902C12.6754 10.3633 13.3315 10.2994 14.0368 10.7306C14.9717 11.3054 15.8902 11.8803 16.7924 12.503C17.0384 12.6787 17.2188 12.9661 17.4157 13.1897C17.4157 13.2535 17.4157 13.3334 17.4157 13.3972C17.3172 13.5409 17.2024 13.6847 17.104 13.8284C16.858 14.2276 16.6283 14.6427 16.3495 15.01C15.7918 15.7445 15.0209 16.1118 14.086 15.9681C13.6267 15.9042 13.1511 15.7605 12.7246 15.5849C9.87063 14.3713 7.3939 12.6308 5.32722 10.3793C3.34255 8.23955 1.60391 5.94015 0.833008 3.0659C0.833008 2.85831 0.833008 2.63476 0.833008 2.42718Z" fill="white"/>
</g>
</g>
</g>
<defs>
<clipPath id="clip0_0_506">
<rect width="16.5662" height="16" fill="white" transform="translate(0.833008)"/>
</clipPath>
</defs>
</svg>
