<svg width="20" height="16" viewBox="0 0 20 16" fill="none" xmlns="http://www.w3.org/2000/svg">
<g id="Frame" clip-path="url(#clip0_0_554)">
<g id="BjqtEn.tif_1_">
<g id="Group">
<path id="Vector" d="M7.0857 16.0002C6.79456 16.0002 6.50343 16.0002 6.2123 16.0002C6.07047 15.9799 5.92714 15.9523 5.78531 15.9407C5.31651 15.9059 4.84324 15.9117 4.38041 15.8405C2.97701 15.6242 1.66318 15.1423 0.416542 14.4876C0.274709 14.415 0.138847 14.3294 0 14.2495C0.00746491 14.2234 0.0149298 14.1973 0.0223947 14.1711C1.07644 14.2626 2.11257 14.2234 3.12929 13.9186C4.14452 13.6137 5.08958 13.1913 5.97492 12.5134C4.0415 12.2535 2.32159 10.979 2.19916 9.76105C2.74709 9.73637 3.29651 9.71315 3.84592 9.68847C1.53031 8.95394 0.609137 7.00438 0.752463 5.72549C1.29591 5.8692 1.84383 6.01291 2.39176 6.15807C2.41266 6.11888 2.43207 6.07969 2.45297 6.04194C1.60496 5.43661 1.03912 4.64256 0.830098 3.65254C0.622574 2.66688 0.733055 1.70879 1.30039 0.782645C3.54285 3.30415 6.34219 4.73692 9.80591 4.96337C9.77008 4.62079 9.7223 4.34062 9.71633 4.06045C9.67901 2.48978 10.7151 0.971358 12.2634 0.313764C13.713 -0.303184 15.4807 0.00891931 16.6542 1.0991C16.8125 1.24572 16.9663 1.29943 17.1648 1.22975C17.6889 1.04684 18.2159 0.868291 18.7354 0.673771C18.9683 0.586673 19.1878 0.464735 19.4909 0.323926C19.1789 1.2733 18.5921 1.91347 17.8531 2.44768C17.8695 2.48252 17.8844 2.51591 17.9009 2.55074C18.5861 2.36348 19.2729 2.17477 20.0015 1.97589C19.9194 2.09203 19.8716 2.18929 19.7984 2.26332C19.2953 2.76994 18.7967 3.28092 18.2726 3.76722C18.0964 3.9298 18.0218 4.07932 18.0039 4.31884C17.9367 5.21596 17.9128 6.12759 17.7202 7.00148C17.3455 8.69845 16.5781 10.2372 15.4867 11.6221C13.8609 13.6834 11.7632 15.0407 9.16244 15.6417C8.47865 15.7984 7.77844 15.8826 7.0857 16.0002Z" fill="white"/>
</g>
</g>
</g>
<defs>
<clipPath id="clip0_0_554">
<rect width="20" height="16" fill="white"/>
</clipPath>
</defs>
</svg>
