<svg width="20" height="15" viewBox="0 0 20 15" fill="none" xmlns="http://www.w3.org/2000/svg">
<g id="Frame" clip-path="url(#clip0_0_560)">
<g id="NQhA4B_2_">
<g id="Group">
<path id="Vector" d="M9.99359 0.946843C12.3939 0.946843 10.4604 0.946843 12.3939 0.946843C16.4612 0.946843 17.3203 1.19595 17.5485 1.23784C18.9395 1.49374 19.6496 2.27954 19.8452 3.83191C19.9278 4.4841 19.9697 5.14309 19.979 5.79982C19.9988 7.21518 20.0151 8.63167 19.9732 10.0459C19.9499 10.8079 19.851 11.5756 19.7008 12.324C19.4878 13.3793 18.6357 14.1051 17.4879 14.2274C16.3739 14.3452 15.2552 14.4324 14.1354 14.4777C11.0157 14.6022 7.89476 14.5807 4.7762 14.421C4.07892 14.3859 3.38164 14.3169 2.68785 14.2297C1.37011 14.0644 0.557588 13.3091 0.334085 12.0319C0.0209487 10.235 -0.0605367 8.42106 0.040738 6.60601C0.104762 5.4658 0.204873 4.32105 0.400438 3.19669C0.594838 2.07347 1.45276 1.34654 2.61684 1.22199C3.74134 1.10197 4.87282 1.01025 6.00314 0.974018C7.33484 0.932123 8.66189 0.946843 9.99359 0.946843ZM8.05773 4.78189C8.05773 6.76792 8.05773 8.68149 8.05773 10.6675C9.8248 9.67903 11.5441 8.71659 13.317 7.72471C11.5348 6.72716 9.82015 5.76812 8.05773 4.78189Z" fill="white"/>
</g>
</g>
</g>
<defs>
<clipPath id="clip0_0_560">
<rect width="20" height="13.6123" fill="white" transform="translate(0 0.94458)"/>
</clipPath>
</defs>
</svg>
