<svg width="14" height="17" viewBox="0 0 14 17" fill="none" xmlns="http://www.w3.org/2000/svg">
<path d="M14 7C14 10.866 10.9805 14 7.2558 14C3.53108 14 0.511597 10.866 0.511597 7C0.511597 3.13401 3.53108 0 7.2558 0C10.9805 0 14 3.13401 14 7Z" fill="#21CB46"/>
<path d="M2.92032 7L5.84065 12.25H0L2.92032 7Z" fill="#21CB46"/>
<path d="M4.36072 10.813C4.48079 10.231 4.85817 9.97463 5.26414 9.77371C5.32132 9.74599 5.41852 9.77371 5.4757 9.82221C5.56718 9.89842 5.65867 10.0023 5.72157 10.1132C5.93313 10.5081 6.13897 10.9031 6.33337 11.3119C6.43058 11.5197 6.40771 11.7276 6.28191 11.9216C6.28191 11.9285 6.2762 11.9285 6.2762 11.9354C6.02461 12.3373 5.96743 12.4759 6.2762 12.9955C6.6307 13.5914 7.06526 14.0972 7.56843 14.5129C7.8486 14.7485 7.99727 14.7484 8.26029 14.4852C8.489 14.2565 8.71772 14.2288 8.96358 14.4159C9.2895 14.6653 9.6097 14.9147 9.92418 15.185C10.0099 15.2612 10.0728 15.3859 10.1415 15.4829C10.1415 15.5106 10.1415 15.5452 10.1415 15.573C10.1072 15.6353 10.0671 15.6977 10.0328 15.76C9.94705 15.9332 9.867 16.1134 9.7698 16.2727C9.57539 16.5915 9.30665 16.7508 8.98074 16.6885C8.82064 16.6607 8.65482 16.5984 8.50616 16.5222C7.51125 15.9956 6.64786 15.2404 5.92741 14.2634C5.23555 13.335 4.62946 12.3373 4.36072 11.0901C4.36072 11.0001 4.36072 10.9031 4.36072 10.813Z" fill="black"/>
</svg>
