<svg width="180" height="40" viewBox="0 0 180 40" fill="none" xmlns="http://www.w3.org/2000/svg">
<g id="Frame" clip-path="url(#clip0_0_174)">
<g id="Group">
<path id="Vector" d="M52.8356 10.9326C54.1557 11.0003 55.2726 11.1357 56.4235 11.948C57.3035 12.5573 58.5897 13.8773 58.5897 16.4836C58.5897 17.1605 58.5558 19.0221 57.0327 20.4437C56.7281 20.7483 56.0511 21.3576 54.968 21.6622C54.1557 21.8991 53.648 21.933 52.091 21.9668H48.6724V28.1609H44.9492V10.9326H52.8356ZM48.6386 18.9883H51.6171C52.6664 18.9883 53.7834 19.0221 54.4603 18.0406C54.6295 17.8036 54.9003 17.2959 54.9003 16.5174C54.9003 15.7389 54.6634 14.9943 54.0203 14.5543C53.2757 14.0127 52.3618 14.0804 51.4818 14.0466H48.6386V18.9883Z" fill="#F29C1F"/>
<path id="Vector_2" d="M75.2426 12.6251C76.3595 13.6743 77.9165 15.8067 77.9165 19.5638C77.9165 20.7484 77.7811 24.6747 74.5318 27.0779C73.6856 27.721 72.1625 28.601 69.5901 28.601C69.0485 28.601 67.5254 28.5671 66.0361 27.8902C64.0729 27.0102 61.1959 24.7085 61.1959 19.5638C61.1959 18.9207 61.2298 17.2283 61.9067 15.5021C63.2268 12.2527 66.1715 10.4927 69.6239 10.4927C70.6393 10.4927 73.144 10.6281 75.2426 12.6251ZM67.6608 14.0805C65.0207 15.4344 65.0545 18.9207 65.0545 19.5299C65.0545 19.9361 65.0545 22.2377 66.1715 23.7608C66.5776 24.3362 67.7285 25.487 69.6916 25.487C70.8763 25.487 71.6886 25.0132 72.0609 24.7424C74.2271 23.2193 74.1594 20.0038 74.1594 19.4622C74.1594 17.7698 73.7533 15.7729 72.3655 14.5882C71.9255 14.182 71.1132 13.6066 69.6239 13.5728C69.2854 13.6066 68.4731 13.6405 67.6608 14.0805Z" fill="#F29C1F"/>
<path id="Vector_3" d="M89.2215 10.9326C89.6954 10.9326 90.1016 10.9326 90.5416 10.9665C91.2524 11.0003 93.3171 11.1019 94.6371 12.9296C95.2802 13.8096 95.5171 14.7912 95.5171 15.8405C95.5171 17.9729 94.3325 19.1237 93.6555 19.5975C93.4524 19.7329 93.2494 19.8683 92.8093 20.0375C93.2832 20.1729 94.1971 20.4776 94.7725 21.6284C95.1448 22.4407 95.314 23.6931 95.4156 24.5392C95.4494 24.9454 95.5171 25.3516 95.551 25.7916C95.6864 27.0778 95.7541 27.5855 96.1941 28.1609H92.3016C92.1324 27.8224 92.0309 27.484 91.9632 26.7393C91.8278 25.6562 91.8616 24.6069 91.6247 23.5577C91.5908 23.3546 91.4216 22.4746 90.7785 22.0007C90.0677 21.4253 89.2892 21.4253 88.4769 21.4253H85.1598V28.1609H81.4366V10.9326H89.2215ZM85.126 18.6837H88.68C89.6615 18.6498 90.1354 18.616 90.5754 18.4467C91.8278 17.939 91.8955 16.6528 91.8955 16.2466C91.8955 15.4343 91.6585 15.062 91.4216 14.7574C90.9477 14.182 90.2708 13.9112 88.8154 13.9112H85.126V18.6837Z" fill="#F29C1F"/>
<path id="Vector_4" d="M111.595 14.182H106.45V28.161H102.693V14.182H97.548V10.9666H111.628V14.182H111.595Z" fill="#F29C1F"/>
<path id="Vector_5" d="M126.69 12.6251C127.807 13.6743 129.364 15.8067 129.364 19.5638C129.364 20.7484 129.229 24.6747 125.98 27.0779C125.134 27.721 123.61 28.601 121.038 28.601C120.496 28.601 118.973 28.5671 117.484 27.8902C115.521 27.0102 112.644 24.7085 112.644 19.5638C112.644 18.9207 112.678 17.2283 113.355 15.5021C114.675 12.2527 117.619 10.4927 121.072 10.4927C122.087 10.4927 124.592 10.6281 126.69 12.6251ZM119.075 14.0805C116.435 15.4344 116.469 18.9207 116.469 19.5299C116.469 19.9361 116.469 22.2377 117.586 23.7608C117.992 24.3362 119.143 25.487 121.106 25.487C122.29 25.487 123.103 25.0132 123.475 24.7424C125.641 23.2193 125.574 20.0038 125.574 19.4622C125.574 17.7698 125.167 15.7729 123.78 14.5882C123.34 14.182 122.527 13.6066 121.038 13.5728C120.7 13.6066 119.921 13.6405 119.075 14.0805Z" fill="#F29C1F"/>
<path id="Vector_6" d="M139.586 10.9327C141.583 10.9327 143.783 10.8311 145.171 12.6251C145.983 13.6405 146.051 14.7913 146.051 15.2313C146.051 15.739 145.95 16.9237 144.968 17.9391C144.596 18.3453 144.19 18.5822 143.716 18.8191C144.765 19.1576 146.83 20.0715 146.83 23.05C146.83 23.3547 146.83 23.8962 146.593 24.6409C146.356 25.4532 145.611 27.044 143.58 27.7548C142.599 28.1271 142.057 28.1271 140.196 28.161H132.817V10.9327H139.586ZM136.506 17.9052H139.722C140.568 17.8714 141.448 17.8714 142.023 17.1267C142.159 16.9237 142.396 16.5175 142.396 15.9082C142.396 15.7052 142.362 15.0959 142.023 14.5882C141.38 13.7759 140.229 13.8436 139.349 13.8436H136.506V17.9052ZM136.506 25.1486H139.789C139.823 25.1486 141.042 25.1824 141.719 24.9455C142.26 24.7424 143.073 24.2008 143.073 22.8131C143.073 22.61 143.073 21.9669 142.666 21.3915C141.989 20.3761 140.5 20.5115 139.485 20.4776H136.472V25.1486H136.506Z" fill="white"/>
<path id="Vector_7" d="M163.719 14.0127H154.547V17.8036H162.975V20.7483H154.547V24.9793H163.889V28.1609H150.824V10.9326H163.719V14.0127Z" fill="white"/>
<path id="Vector_8" d="M180 14.182H174.855V28.161H171.098V14.182H165.953V10.9666H180.034V14.182H180Z" fill="white"/>
<g id="Group_2">
<g id="Group_3">
<path id="Vector_9" d="M16.856 39.0598L0 29.1087V9.51109L16.856 0L33.4073 9.54494V29.1087L16.856 39.0598ZM3.38473 27.1794L16.8221 35.0997L29.9887 27.1794V11.4742L16.8221 3.89244L3.38473 11.5081V27.1794Z" fill="#F29C1F"/>
</g>
</g>
<path id="Vector_10" d="M4.09552 11.9143V21.2223H12.3204V31.6473L16.6867 34.0504V4.87402L4.09552 11.9143ZM12.3543 17.1606H8.05566V14.6221L12.3543 12.4897V17.1606Z" fill="white"/>
<path id="Vector_11" d="M21.29 12.3882V17.6345H25.4193V14.3852L21.29 12.3882Z" fill="white"/>
<path id="Vector_12" d="M21.29 26.9424V21.696H25.4193V24.9792L21.29 26.9424Z" fill="white"/>
</g>
</g>
<defs>
<clipPath id="clip0_0_174">
<rect width="180" height="39.0598" fill="white"/>
</clipPath>
</defs>
</svg>
