<svg width="16" height="12" viewBox="0 0 16 12" fill="none" xmlns="http://www.w3.org/2000/svg">
<g clip-path="url(#clip0_0_157)">
<path d="M8.02561 0C10.3821 0 12.7215 0 15.0779 0C15.8292 0 16 0.160428 16 0.882353C16 3.43315 16 5.98396 16 8.5508C16 9.28877 15.8292 9.4492 15.0608 9.4492C13.4045 9.4492 11.7481 9.4492 10.0918 9.4492C9.56243 9.4492 9.52828 9.49733 9.59659 9.97861C9.63074 10.2353 9.64781 10.508 9.71612 10.7647C9.83565 11.1658 10.2284 11.2941 10.5699 11.5027C10.7065 11.5829 10.9114 11.6471 10.8773 11.8396C10.826 12.0642 10.587 12.016 10.4162 12.016C8.8111 12.016 7.22305 12.016 5.61793 12.016C5.44717 12.016 5.24226 12.0642 5.17396 11.8717C5.10566 11.6471 5.32764 11.5508 5.48132 11.5027C6.36926 11.1979 6.42049 10.492 6.47172 9.77005C6.48879 9.43315 6.24973 9.46524 6.02775 9.46524C4.38847 9.46524 2.7492 9.46524 1.09285 9.46524C0.136606 9.43315 0 9.30481 0 8.45455C0 5.91979 0 3.38503 0 0.86631C0 0.160428 0.170758 0 0.939168 0C3.29562 0 5.66916 0 8.02561 0ZM7.99146 8.37433C10.1942 8.37433 12.4141 8.37433 14.6169 8.37433C14.9925 8.37433 15.1291 8.27807 15.1291 7.89305C15.1121 5.67914 15.1121 3.48128 15.1291 1.26738C15.1291 0.898396 14.9925 0.786096 14.6169 0.786096C10.2113 0.818182 5.80576 0.818182 1.40021 0.818182C1.00747 0.818182 0.853789 0.930481 0.870864 1.31551C0.88794 3.51337 0.88794 5.71123 0.870864 7.89305C0.870864 8.27807 1.00747 8.39037 1.40021 8.39037C3.60299 8.37433 5.78869 8.37433 7.99146 8.37433Z" fill="#C41A1A"/>
</g>
<defs>
<clipPath id="clip0_0_157">
<rect width="16" height="12" fill="white"/>
</clipPath>
</defs>
</svg>
