<svg width="18" height="14" viewBox="0 0 18 14" fill="none" xmlns="http://www.w3.org/2000/svg">
<rect width="18" height="12" rx="2" fill="#F29C1F"/>
<rect x="3" y="11" width="1" height="3" rx="0.5" fill="#F29C1F"/>
<rect x="14" y="11" width="1" height="3" rx="0.5" fill="#F29C1F"/>
<path d="M3 4.73352V4.15288C3.63868 4.09958 4.08411 4.01122 4.33631 3.8878C4.58851 3.76157 4.77683 3.46564 4.9013 3H5.59893V9H4.65565V4.73352H3Z" fill="black"/>
<path d="M8.75301 4.55259H9.77981V5.46985H8.75301V4.55259ZM8.75301 8.08275H9.77981V9H8.75301V8.08275Z" fill="black"/>
<path d="M11.4011 4.73352V4.15288C12.0398 4.09958 12.4852 4.01122 12.7374 3.8878C12.9896 3.76157 13.1779 3.46564 13.3024 3H14V9H13.0567V4.73352H11.4011Z" fill="black"/>
</svg>
