<svg width="13" height="15" viewBox="0 0 13 15" fill="none" xmlns="http://www.w3.org/2000/svg">
<path d="M12.0015 7.44235C11.6836 7.88522 10.5625 8.08642 10.1586 7.77368C9.82084 7.51234 9.82084 6.93825 10.1586 6.6769C10.5625 6.36416 11.6836 6.56536 12.0015 7.00823C12.0015 7.15367 12.0015 7.29801 12.0015 7.44235Z" fill="#F29C1F"/>
<path d="M5.80641 14.1693C5.42326 13.8018 5.24918 12.506 5.51975 12.0391C5.74586 11.6487 6.24254 11.6487 6.46865 12.0391C6.73922 12.506 6.56514 13.8018 6.18199 14.1693C6.05617 14.1693 5.93129 14.1693 5.80641 14.1693Z" fill="#F29C1F"/>
<path d="M8.99677 7.23868C8.99109 9.12715 7.64107 10.6876 6.00629 10.6963C4.35542 10.7051 2.9827 9.1195 2.99027 7.21243C2.99783 5.30427 4.38097 3.72963 6.02805 3.75369C7.66283 3.77884 9.00339 5.35129 8.99677 7.23868Z" fill="#F29C1F"/>
<path d="M5.42882 1.4672C5.42882 1.26819 5.4099 1.06698 5.4326 0.872339C5.47707 0.492894 5.69277 0.290597 6.01159 0.299345C6.30771 0.306999 6.52719 0.504923 6.55179 0.859217C6.58111 1.27256 6.57922 1.69028 6.55652 2.10471C6.5357 2.48416 6.32568 2.6952 5.99929 2.69849C5.6729 2.70177 5.46855 2.49509 5.42977 2.11674C5.40801 1.90351 5.42598 1.68372 5.42598 1.4672C5.42787 1.4672 5.42787 1.4672 5.42882 1.4672Z" fill="#F29C1F"/>
<path d="M1.03216 7.87612C0.844843 7.87612 0.65374 7.90346 0.470205 7.86956C0.167467 7.81489 -0.00187642 7.57213 1.56869e-05 7.22768C0.0019078 6.85807 0.181658 6.60329 0.510885 6.57486C0.853357 6.54533 1.19961 6.54752 1.54209 6.57048C1.89307 6.59454 2.08512 6.84495 2.07566 7.24845C2.06715 7.62571 1.8751 7.8466 1.54776 7.8805C1.37747 7.89799 1.20434 7.88378 1.03216 7.88378C1.03216 7.88159 1.03216 7.87831 1.03216 7.87612Z" fill="#F29C1F"/>
<path d="M2.17477 2.12744C2.54279 2.13728 3.39613 3.14112 3.39234 3.5643C3.39045 3.81909 3.29679 4.02357 3.09907 4.14058C2.88904 4.26414 2.66199 4.27398 2.48319 4.08809C2.20599 3.79831 1.9392 3.49213 1.69228 3.16736C1.53335 2.9585 1.54186 2.70044 1.66863 2.45877C1.78405 2.23898 1.95434 2.13182 2.17477 2.12744Z" fill="#F29C1F"/>
<path d="M10.4034 2.79464C10.4053 3.24297 9.51123 4.24353 9.12997 4.22056C8.70425 4.19432 8.43462 3.64866 8.67681 3.22985C8.91049 2.82525 9.20944 2.46221 9.57273 2.21071C9.93885 1.95701 10.4015 2.30256 10.4034 2.79464Z" fill="#F29C1F"/>
<path d="M2.80586 10.2327C3.02534 10.2316 3.20415 10.3256 3.31389 10.552C3.43025 10.7915 3.43687 11.0462 3.29024 11.2649C3.05088 11.6225 2.77653 11.9473 2.46149 12.2163C2.26471 12.3836 2.04712 12.3639 1.84656 12.2086C1.66397 12.0687 1.5722 11.8653 1.58639 11.6094C1.60815 11.2037 2.46055 10.2447 2.80586 10.2327Z" fill="#F29C1F"/>
<path d="M10.405 11.6783C10.4002 11.897 10.3066 12.0938 10.1164 12.2261C9.90734 12.3716 9.68312 12.3792 9.50337 12.1955C9.22334 11.9101 8.9575 11.6017 8.70774 11.2802C8.54691 11.0736 8.55637 10.8111 8.66517 10.5684C8.76734 10.3398 8.94331 10.2338 9.16468 10.2327C9.5327 10.2316 10.3983 11.219 10.405 11.6783Z" fill="#F29C1F"/>
</svg>
