<svg width="15" height="15" viewBox="0 0 15 15" fill="none" xmlns="http://www.w3.org/2000/svg">
<path d="M7.04129 13.9992C7.34129 13.8722 7.6413 13.7462 7.9343 13.6162C7.98316 13.5913 8.02996 13.5626 8.07428 13.5302L7.14029 12.8432L7.16528 12.8182C7.62228 12.8392 8.08029 12.8532 8.53729 12.8832C8.67282 12.9014 8.81075 12.8832 8.93692 12.8304C9.06309 12.7777 9.17296 12.6924 9.25528 12.5832C9.51428 12.2522 9.79329 11.9352 10.0633 11.6122C10.0983 11.5702 10.1313 11.5262 10.1953 11.4422V12.7042C10.7401 12.5984 11.2655 12.4099 11.7533 12.1452C11.7223 12.1772 11.6943 12.2132 11.6603 12.2452C10.5161 13.2599 9.06878 13.8681 7.54327 13.9752C7.48846 13.9819 7.43405 13.9916 7.38028 14.0042L7.04129 13.9992Z" fill="#F0F0F0"/>
<path d="M7.95129 6.52621L9.66827 8.49521C9.33427 8.42421 9.02229 8.36521 8.71429 8.29521C8.21029 8.17455 7.70794 8.04821 7.20728 7.91621C7.18612 7.90646 7.16324 7.90105 7.13995 7.90031C7.11667 7.89958 7.09348 7.90353 7.07175 7.91193C7.05002 7.92032 7.0302 7.93299 7.01346 7.94919C6.99672 7.96539 6.98338 7.98477 6.97427 8.00621C6.63427 8.57821 6.2883 9.14621 5.9433 9.71521C5.91242 9.7727 5.86686 9.821 5.81128 9.85521C5.72528 9.38821 5.6303 8.92222 5.5553 8.45522C5.5053 8.14022 5.47429 7.82121 5.45029 7.50221C5.44129 7.38021 5.37128 7.35621 5.28528 7.32321C4.70728 7.09855 4.12995 6.87288 3.55328 6.64621C3.50228 6.62621 3.45327 6.59921 3.37527 6.56021C3.47527 6.50921 3.55528 6.46722 3.63528 6.43222C4.17828 6.19522 4.71929 5.95622 5.26529 5.73222C5.31275 5.71862 5.35412 5.68917 5.38251 5.64877C5.41089 5.60838 5.42458 5.55948 5.4213 5.51022C5.45908 4.75165 5.57504 3.999 5.7673 3.26422L5.87527 3.43921C6.20227 3.95921 6.5313 4.47721 6.8533 5.00021C6.9123 5.10021 6.9683 5.10722 7.0733 5.07622C7.8253 4.85822 8.57928 4.65021 9.33228 4.43921C9.38328 4.42521 9.4323 4.41821 9.5173 4.40321L7.95129 6.52621Z" fill="#F0F0F0"/>
<path d="M10.2403 11.3702L11.1603 9.97522L9.74728 8.56522L9.77829 8.51721C9.90729 8.52721 10.0363 8.5442 10.1653 8.5452C10.6973 8.5452 11.2303 8.5452 11.7653 8.5452C11.8178 8.55019 11.8706 8.53705 11.9146 8.50793C11.9586 8.47882 11.9913 8.43553 12.0073 8.38522C12.2753 7.75622 12.5483 7.12922 12.8203 6.50122C12.8422 6.43802 12.8805 6.38175 12.9313 6.3382L13.1313 8.20621C13.46 8.0744 13.7478 7.8577 13.9653 7.57822L14.0043 7.60022C13.9432 7.85286 13.867 8.10163 13.7763 8.34521C13.6288 8.6899 13.4577 9.02403 13.2643 9.34521C13.1566 9.52519 13.0808 9.72243 13.0403 9.92822C12.9653 10.2712 12.8513 10.6062 12.7503 10.9432C12.7343 10.9952 12.7003 11.0432 12.7113 11.0362C12.5473 10.9012 12.3813 10.7672 12.2203 10.6292C12.2066 10.614 12.19 10.6018 12.1714 10.5931C12.1529 10.5845 12.1327 10.5798 12.1123 10.5791C12.0918 10.5784 12.0715 10.5819 12.0524 10.5893C12.0333 10.5967 12.016 10.6079 12.0013 10.6222C11.4971 10.9607 10.9367 11.2069 10.3463 11.3492C10.3153 11.3572 10.2833 11.3622 10.2403 11.3702Z" fill="#F0F0F0"/>
<path d="M1.8963 11.7702C2.36685 11.8427 2.84824 11.7849 3.2883 11.6032L2.5343 9.94122L2.5773 9.91223C2.6553 9.97923 2.73129 10.0482 2.81229 10.1122C3.22729 10.4382 3.64529 10.7602 4.05829 11.0882C4.07399 11.1056 4.09301 11.1196 4.1142 11.1295C4.13538 11.1394 4.15833 11.145 4.1817 11.1459C4.20507 11.1468 4.2284 11.1431 4.25031 11.1349C4.27221 11.1267 4.29226 11.1143 4.3093 11.0982C4.7583 10.7532 5.20929 10.4132 5.66229 10.0702C5.70629 10.0372 5.74529 9.99922 5.81329 9.94022C5.75929 10.2752 5.70628 10.5752 5.66528 10.8772C5.62028 11.2112 5.5883 11.5462 5.5463 11.8772C5.53587 11.9204 5.54189 11.9659 5.56314 12.0049C5.58439 12.0439 5.61936 12.0736 5.66129 12.0882C6.06129 12.2832 6.4533 12.4882 6.8493 12.6882C6.90453 12.7111 6.95231 12.7488 6.9873 12.7972L5.54529 12.8642C5.54147 13.2124 5.60957 13.5576 5.7453 13.8782C5.6563 13.8522 5.58828 13.8372 5.52328 13.8132C5.01417 13.6118 4.5635 13.2862 4.21228 12.8662C4.12973 12.7687 4.0153 12.7035 3.88928 12.6822C3.27275 12.5805 2.68384 12.3528 2.1593 12.0132C2.0853 11.9622 2.0173 11.9032 1.9473 11.8462C1.92817 11.8224 1.91111 11.797 1.8963 11.7702Z" fill="#F0F0F0"/>
<path d="M13.5873 4.42921L12.7533 4.11122L12.9433 6.07521L12.8883 6.08821L12.8153 5.96922C12.4526 5.37589 12.09 4.78222 11.7273 4.18822C11.7059 4.1429 11.67 4.10607 11.6252 4.08359C11.5804 4.06111 11.5294 4.05429 11.4803 4.06422C10.9193 4.14222 10.3583 4.21522 9.79727 4.29022C9.74227 4.29722 9.68827 4.31021 9.60327 4.32521C9.64827 4.26821 9.67728 4.23322 9.70328 4.19722C10.0033 3.80622 10.3033 3.41322 10.6033 3.02322C10.6204 3.00739 10.6338 2.98789 10.6423 2.96619C10.6509 2.94448 10.6544 2.92114 10.6527 2.89787C10.6509 2.87461 10.644 2.85205 10.6323 2.83185C10.6207 2.81165 10.6046 2.79434 10.5853 2.78122C10.1219 2.28314 9.60967 1.83287 9.05627 1.43721C9.01227 1.40621 8.96927 1.37222 8.89227 1.31322C9.67219 1.41296 10.4305 1.63962 11.1373 1.98422L11.2483 1.25421C11.3048 1.31303 11.3582 1.3748 11.4083 1.43922C11.6373 1.77122 11.8623 2.10622 12.0923 2.43922C12.1753 2.57571 12.2728 2.70279 12.3833 2.81822C12.8478 3.23602 13.233 3.73436 13.5203 4.28922C13.5403 4.32922 13.5603 4.36922 13.5793 4.41022C13.5873 4.42922 13.5873 4.43821 13.5873 4.42921Z" fill="#F0F0F0"/>
<path d="M4.71429 1.79621L3.0083 2.41921C3.40809 1.93256 3.8751 1.50528 4.39529 1.15022L3.9733 0.526217C4.12792 0.491475 4.28455 0.466429 4.44229 0.45122C4.84229 0.43522 5.24929 0.437219 5.65329 0.426219C5.73639 0.42405 5.81869 0.409214 5.89731 0.38222C6.64834 0.110045 7.44376 -0.0188477 8.24231 0.00222267H8.28329L7.18329 0.642222L8.75729 1.24222L8.7413 1.33023C8.4133 1.33023 8.08329 1.31623 7.75629 1.33023C7.38129 1.35023 7.00731 1.39222 6.63431 1.43922C6.55085 1.45422 6.47636 1.50078 6.4263 1.56922C6.14521 2.00367 5.94029 2.48287 5.82031 2.98622L5.76431 3.20422C5.35426 2.78281 5.00124 2.30943 4.71429 1.79621Z" fill="#F0F0F0"/>
<path d="M1.21229 8.95322L0.739282 10.0912C0.71923 10.0553 0.701201 10.0182 0.685281 9.98022C0.503437 9.45363 0.420383 8.89797 0.440286 8.34122C0.433154 8.24433 0.403347 8.15046 0.35328 8.0672C0.25328 7.8732 0.140289 7.68622 0.0312895 7.49722C0.0166694 7.47811 0.00678325 7.4558 0.00246562 7.43213C-0.00185202 7.40846 -0.000483425 7.38409 0.00644816 7.36105C0.0133798 7.33801 0.025676 7.31695 0.0423368 7.29959C0.0589977 7.28223 0.0795519 7.26907 0.102289 7.2612C0.239289 7.1852 0.382284 7.1182 0.513284 7.0332C0.586573 6.99099 0.644923 6.92705 0.680276 6.85022C0.852519 6.33813 1.08766 5.84938 1.38029 5.3952L1.53329 6.72321L3.27728 6.5582L3.31028 6.61621C3.26847 6.63902 3.22895 6.6658 3.19229 6.6962C2.77529 7.1122 2.36128 7.5312 1.94328 7.9472C1.90063 7.98286 1.87109 8.03173 1.85932 8.08606C1.84755 8.14039 1.85423 8.19711 1.87829 8.24722C2.07029 8.74722 2.25329 9.25321 2.44929 9.78021L1.21229 8.95322Z" fill="#F0F0F0"/>
<path d="M1.35828 5.25122L0.851274 4.38522L0.135286 5.45222C0.00328557 4.62522 1.53528 2.05222 2.52529 1.46622L1.91528 2.60522L2.86028 2.48122L2.88028 2.52022C2.84128 2.55122 2.80128 2.58221 2.76328 2.61421C2.42728 2.89521 2.09327 3.17822 1.75427 3.45422C1.70175 3.49593 1.65802 3.54762 1.62558 3.60632C1.59314 3.66502 1.57265 3.72956 1.56528 3.79622C1.49828 4.26822 1.43028 4.74022 1.35828 5.25122Z" fill="#F0F0F0"/>
</svg>
