<svg width="206" height="104" viewBox="0 0 206 104" fill="none" xmlns="http://www.w3.org/2000/svg">
<g id="Group 3151">
<g id="Group 3137">
<g id="Group 3136">
<g id="Component 9 &#226;&#128;&#147; 44">
<g id="Group" filter="url(#filter0_d_0_600)">
<g id="Rectangle 50">
<path id="Vector" d="M36.6892 20.0004L169.977 21.0628C170.787 21.0695 171.586 21.2345 172.324 21.5474C173.045 21.8533 173.695 22.2878 174.238 22.8266C174.791 23.373 175.228 24.0121 175.528 24.7104C175.841 25.4409 176.001 26.2211 176 27.0084V56.4834C176.001 57.2707 175.841 58.0509 175.528 58.7814C175.228 59.4797 174.791 60.1188 174.238 60.6652C173.695 61.204 173.045 61.6385 172.324 61.9444C171.586 62.2573 170.787 62.4223 169.977 62.429L36.6892 63.489C35.8147 63.4981 34.9469 63.3451 34.1357 63.0388C33.3245 62.7325 32.5859 62.2788 31.9624 61.704C31.3399 61.1317 30.8455 60.4487 30.5085 59.6949C30.1715 58.9411 29.9986 58.1317 30 57.3144V26.175C29.9986 25.3576 30.1715 24.5483 30.5085 23.7945C30.8455 23.0407 31.3399 22.3576 31.9624 21.7854C32.5859 21.2105 33.3245 20.7569 34.1357 20.4506C34.9469 20.1442 35.8147 19.9912 36.6892 20.0004Z" fill="#F29C1F"/>
<path id="Vector_2" d="M169.977 61.8355C170.726 61.8297 171.439 61.6751 172.088 61.4009C172.737 61.1267 173.321 60.733 173.812 60.2487C174.302 59.7645 174.699 59.1896 174.973 58.5529C175.247 57.9164 175.399 57.218 175.399 56.4864V27.0027C175.399 26.2711 175.247 25.5727 174.973 24.9362C174.699 24.2995 174.302 23.7247 173.812 23.2405C173.321 22.7561 172.737 22.3624 172.088 22.0882C171.439 21.814 170.726 21.6594 169.977 21.6536L36.6895 20.6215C35.8613 20.6151 35.0713 20.7658 34.352 21.0439C33.6323 21.3221 32.9834 21.7276 32.4381 22.2307C31.8925 22.7339 31.4507 23.3346 31.1451 24.0026C30.8395 24.6707 30.6704 25.4061 30.6704 26.1786V57.3105C30.6704 58.083 30.8395 58.8184 31.1451 59.4865C31.4507 60.1546 31.8925 60.7552 32.4381 61.2584C32.9834 61.7615 33.6323 62.167 34.352 62.4452C35.0713 62.7233 35.8613 62.874 36.6895 62.8676L169.977 61.8355ZM169.977 62.4264L36.6895 63.4889C35.7678 63.4962 34.8892 63.3293 34.0895 63.0209C33.2894 62.7124 32.5684 62.2623 31.9627 61.7038C31.3567 61.145 30.866 60.4776 30.5269 59.735C30.1876 58.9922 30 58.1742 30 57.3143V26.1748C30 25.3149 30.1876 24.4969 30.5269 23.7541C30.866 23.0115 31.3567 22.3442 31.9627 21.7854C32.5684 21.2268 33.2894 20.7767 34.0895 20.4682C34.8892 20.1598 35.7678 19.9929 36.6895 20.0002L169.977 21.0627C170.81 21.0694 171.604 21.241 172.325 21.5454C173.046 21.8497 173.694 22.2867 174.239 22.8246C174.783 23.3623 175.223 24.0007 175.528 24.7083C175.832 25.4156 176 26.1921 176 27.0061V56.483C176 57.297 175.832 58.0735 175.528 58.7808C175.223 59.4884 174.783 60.1269 174.239 60.6645C173.694 61.2024 173.046 61.6394 172.325 61.9437C171.604 62.2482 170.81 62.4197 169.977 62.4264Z" fill="#707070" fill-opacity="0.1"/>
</g>
</g>
</g>
</g>
<path id="Join now" d="M76.8488 37.2245L75.8149 42.8207C75.6159 43.858 75.1791 44.6455 74.5045 45.1829C73.8299 45.7204 72.9713 45.9889 71.9288 45.9885C70.966 45.9885 70.2089 45.7713 69.6575 45.3368C69.1061 44.9023 68.8302 44.258 68.8298 43.404C68.8298 43.1504 68.8558 42.8762 68.908 42.5814H71.7595C71.7337 42.7288 71.7208 42.8556 71.7208 42.9618C71.7208 43.3462 71.8985 43.5382 72.2539 43.5378C72.4262 43.5378 72.5714 43.4845 72.6894 43.3779C72.8074 43.2713 72.8919 43.0874 72.9427 42.8261L73.9817 37.2209L76.8488 37.2245ZM80.963 45.9697C80.1876 45.9697 79.5068 45.8203 78.9205 45.5215C78.3342 45.2227 77.8819 44.7973 77.5635 44.2453C77.2439 43.6949 77.084 43.0648 77.084 42.3549C77.084 41.3183 77.3106 40.4023 77.7638 39.6068C78.217 38.8113 78.8511 38.1918 79.6662 37.7485C80.4803 37.3043 81.4169 37.0832 82.4757 37.0852C83.2667 37.0852 83.9559 37.2346 84.5435 37.5334C85.1311 37.8323 85.5834 38.2516 85.9005 38.7915C86.218 39.3326 86.3767 39.9569 86.3767 40.6643C86.3767 41.6892 86.1514 42.6044 85.7008 43.41C85.2502 44.2156 84.615 44.8429 83.7952 45.2919C82.9742 45.7414 82.0299 45.9673 80.9624 45.9697H80.963ZM81.4024 43.4391C81.85 43.4391 82.2395 43.3266 82.5707 43.1017C82.902 42.8768 83.1536 42.5794 83.3255 42.2095C83.4978 41.8388 83.5839 41.4378 83.5839 41.0066C83.5839 40.5587 83.4571 40.2107 83.2033 39.9623C82.9496 39.714 82.5862 39.5896 82.1132 39.5892C81.6657 39.5892 81.2741 39.699 80.9385 39.9187C80.6029 40.1384 80.3466 40.4338 80.1695 40.8049C79.9929 41.176 79.9046 41.5775 79.9046 42.0096C79.9046 42.4578 80.0317 42.8083 80.2858 43.0611C80.54 43.3139 80.9129 43.4399 81.4044 43.4391H81.4024ZM91.1035 37.2415L89.4997 45.8668L86.6468 45.8728L88.2539 37.2379L91.1035 37.2415ZM99.4618 45.8462L96.6303 45.8522L94.4332 41.5269L93.6268 45.8565L90.7836 45.8625L92.3849 37.2427L95.2281 37.2463L97.4115 41.6468L98.2276 37.25L101.053 37.2554L99.4618 45.8462ZM111.497 45.8213L108.692 45.8268L106.514 41.5208L105.715 45.8328L102.897 45.8389L104.485 37.2554L107.299 37.2585L109.463 41.6389L110.272 37.2615L113.075 37.2645L111.497 45.8213ZM117.129 45.894C116.374 45.894 115.712 45.7466 115.141 45.4518C114.571 45.1571 114.13 44.7373 113.819 44.1926C113.508 43.6495 113.352 43.0278 113.352 42.3276C113.352 41.3052 113.573 40.4015 114.014 39.6165C114.455 38.8315 115.072 38.2203 115.865 37.783C116.658 37.3457 117.569 37.1276 118.599 37.1288C119.369 37.1288 120.04 37.2762 120.613 37.571C121.186 37.8658 121.627 38.2795 121.936 38.8121C122.245 39.3459 122.399 39.9619 122.399 40.6601C122.399 41.6696 122.18 42.5725 121.741 43.3688C121.303 44.1651 120.684 44.7842 119.886 45.2259C119.088 45.6693 118.169 45.8922 117.13 45.8946L117.129 45.894ZM117.556 43.3973C117.992 43.3973 118.37 43.2864 118.693 43.0648C119.015 42.8431 119.26 42.5497 119.427 42.1847C119.595 41.8192 119.678 41.4235 119.678 40.9975C119.678 40.5557 119.555 40.2125 119.308 39.9678C119.061 39.7231 118.707 39.6005 118.247 39.6001C117.811 39.6001 117.43 39.7085 117.103 39.9254C116.776 40.1422 116.527 40.4336 116.356 40.7994C116.184 41.1653 116.098 41.5614 116.098 41.9878C116.098 42.432 116.221 42.7777 116.469 43.0248C116.716 43.2719 117.079 43.3963 117.557 43.3979L117.556 43.3973ZM136.919 37.2954L133.36 45.7753L129.928 45.7826L129.791 40.9581L127.885 45.7868L124.44 45.7959L123.976 37.2803L126.96 37.2833L126.785 42.642L128.957 37.2857L131.968 37.2893L132.18 42.6377L133.956 37.2918L136.919 37.2954Z" fill="white"/>
</g>
<g id="link">
<g id="Group 3145">
<g id="Group 3144">
<path id="Path 1650" d="M158.796 40.7576C158.685 40.6462 158.562 40.5476 158.429 40.4635C158.012 40.1959 157.515 40.0791 157.022 40.1325C156.529 40.1859 156.069 40.4062 155.718 40.7569L153.743 42.7349C153.354 43.1465 153.141 43.6935 153.149 44.2597C153.157 44.8259 153.386 45.3666 153.786 45.767C154.186 46.1673 154.727 46.3958 155.293 46.4039C155.86 46.4119 156.407 46.1988 156.818 45.81L158.449 44.1789C158.472 44.1573 158.488 44.1294 158.494 44.0988C158.501 44.0682 158.498 44.0363 158.486 44.0074C158.474 43.9785 158.454 43.9538 158.427 43.9367C158.401 43.9196 158.37 43.9108 158.339 43.9115H158.277C157.936 43.9134 157.598 43.8487 157.282 43.721C157.254 43.7093 157.223 43.7063 157.192 43.7123C157.162 43.7184 157.135 43.7333 157.113 43.755L155.94 44.9296C155.856 45.0286 155.753 45.1092 155.637 45.1663C155.521 45.2234 155.394 45.2558 155.265 45.2614C155.135 45.267 155.006 45.2457 154.886 45.1988C154.765 45.152 154.655 45.0806 154.563 44.9892C154.472 44.8977 154.4 44.7883 154.353 44.6677C154.306 44.5472 154.284 44.4181 154.289 44.2888C154.294 44.1594 154.326 44.0325 154.383 43.9161C154.44 43.7997 154.52 43.6964 154.619 43.6127L156.603 41.6299C156.778 41.4553 157.015 41.3572 157.262 41.3572C157.509 41.3572 157.746 41.4553 157.921 41.6299C158.039 41.7411 158.195 41.803 158.357 41.803C158.519 41.803 158.676 41.7411 158.794 41.6299C158.851 41.5727 158.897 41.5047 158.928 41.4298C158.959 41.3549 158.975 41.2746 158.975 41.1934C158.975 41.1123 158.959 41.032 158.928 40.9571C158.897 40.8821 158.851 40.8141 158.794 40.7569L158.796 40.7576Z" fill="white"/>
</g>
</g>
<g id="Group 3147">
<g id="Group 3146">
<path id="Path 1651" d="M161.829 37.7217C161.421 37.3141 160.868 37.0852 160.291 37.0852C159.715 37.0852 159.162 37.3141 158.754 37.7217L157.124 39.3501C157.101 39.372 157.086 39.4002 157.08 39.431C157.073 39.4619 157.077 39.4938 157.089 39.5228C157.101 39.5517 157.122 39.5762 157.148 39.5931C157.175 39.61 157.206 39.6185 157.237 39.6175H157.295C157.635 39.6169 157.973 39.683 158.288 39.812C158.316 39.8237 158.347 39.8267 158.377 39.8207C158.408 39.8146 158.435 39.7997 158.457 39.7779L159.627 38.6094C159.806 38.4579 160.036 38.3792 160.27 38.389C160.505 38.3988 160.727 38.4964 160.893 38.6623C161.059 38.8283 161.156 39.0505 161.166 39.285C161.176 39.5195 161.097 39.7491 160.946 39.9284L159.488 41.3843L159.476 41.3983L158.966 41.9051C158.791 42.0797 158.554 42.1778 158.307 42.1778C158.06 42.1778 157.823 42.0797 157.649 41.9051C157.53 41.7939 157.374 41.732 157.212 41.732C157.05 41.732 156.894 41.7939 156.775 41.9051C156.718 41.9626 156.672 42.0309 156.641 42.1061C156.61 42.1813 156.594 42.2619 156.594 42.3432C156.594 42.4246 156.61 42.5052 156.641 42.5804C156.672 42.6556 156.718 42.7239 156.775 42.7814C156.955 42.9621 157.166 43.1094 157.397 43.2166C157.43 43.232 157.464 43.2447 157.495 43.2587C157.526 43.2728 157.562 43.2835 157.594 43.2962C157.627 43.3089 157.661 43.3196 157.694 43.3289L157.786 43.3536C157.848 43.369 157.91 43.3817 157.973 43.3924C158.05 43.4039 158.127 43.4113 158.205 43.4145H158.323L158.416 43.4038C158.45 43.4038 158.483 43.3944 158.526 43.3944H158.579L158.686 43.3791L158.736 43.3697L158.826 43.351H158.843C159.225 43.2551 159.573 43.0576 159.851 42.7794L161.829 40.8014C162.032 40.5993 162.193 40.3592 162.302 40.095C162.412 39.8307 162.468 39.5475 162.468 39.2614C162.468 38.9753 162.411 38.6921 162.302 38.4279C162.192 38.1637 162.031 37.9237 161.829 37.7217Z" fill="white"/>
</g>
</g>
</g>
<path id="Polygon 4" d="M52.1915 41.7446L47.5319 44.8509V38.6382L52.1915 41.7446Z" fill="white"/>
</g>
<defs>
<filter id="filter0_d_0_600" x="0" y="0" width="206" height="103.489" filterUnits="userSpaceOnUse" color-interpolation-filters="sRGB">
<feFlood flood-opacity="0" result="BackgroundImageFix"/>
<feColorMatrix in="SourceAlpha" type="matrix" values="0 0 0 0 0 0 0 0 0 0 0 0 0 0 0 0 0 0 127 0" result="hardAlpha"/>
<feOffset dy="10"/>
<feGaussianBlur stdDeviation="15"/>
<feColorMatrix type="matrix" values="0 0 0 0 0.835294 0 0 0 0 0.835294 0 0 0 0 0.835294 0 0 0 0.1 0"/>
<feBlend mode="normal" in2="BackgroundImageFix" result="effect1_dropShadow_0_600"/>
<feBlend mode="normal" in="SourceGraphic" in2="effect1_dropShadow_0_600" result="shape"/>
</filter>
</defs>
</svg>
