<svg width="66" height="76" viewBox="0 0 66 76" fill="none" xmlns="http://www.w3.org/2000/svg">
<g id="Frame 15">
<g id="Group 1">
<path id="Rectangle 1410" d="M66 76L20 76C8.95431 76 7.8281e-07 67.0457 1.74846e-06 56L4.89568e-06 20C5.86132e-06 8.9543 8.95431 -4.98709e-06 20 -4.02145e-06L66 0L66 76Z" fill="#141414" fill-opacity="0.7"/>
<path id="Path 1626" d="M28.001 47.68L27.331 47.024C27.2281 46.9231 27.1464 46.8026 27.0906 46.6697C27.0347 46.5368 27.006 46.3942 27.006 46.25C27.006 46.1059 27.0347 45.9632 27.0906 45.8303C27.1464 45.6974 27.2281 45.5769 27.331 45.476L34.9244 38.0002L27.325 30.5184C27.2221 30.4175 27.1404 30.2971 27.0846 30.1642C27.0287 30.0313 27 29.8886 27 29.7445C27 29.6003 27.0287 29.4576 27.0846 29.3247C27.1404 29.1918 27.2221 29.0714 27.325 28.9705L28.001 28.3205C28.211 28.115 28.4931 28 28.7869 28C29.0807 28 29.3628 28.115 29.5728 28.3205L38.644 37.2283C38.7512 37.3272 38.8378 37.4464 38.8988 37.5788C38.9599 37.7113 38.9943 37.8545 39 38.0002C38.9953 38.1474 38.9615 38.2921 38.9004 38.426C38.8392 38.5599 38.7521 38.6803 38.644 38.7802L29.5868 47.68C29.3743 47.8853 29.0904 48 28.7949 48C28.4994 48 28.2135 47.8853 28.001 47.68Z" fill="#F0F0F0"/>
</g>
</g>
</svg>
