<svg width="12" height="12" viewBox="0 0 12 12" fill="none" xmlns="http://www.w3.org/2000/svg">
<g clip-path="url(#clip0_0_75)">
<path d="M8.34232 0C9.14699 0 9.94699 0 10.7517 0C11.4721 0 11.9961 0.523804 11.9961 1.24871C11.9961 2.86221 11.9961 4.47571 11.9961 6.08922C11.9961 6.80009 11.4675 7.33325 10.7563 7.33793C10.1716 7.3426 9.58676 7.3426 9.00196 7.33793C8.89436 7.33793 8.83354 7.37534 8.78208 7.46888C8.0429 8.75032 7.29904 10.0318 6.56454 11.3179C6.17156 12.0007 5.45577 12.1925 4.77272 11.7949C3.40196 11.0045 2.0312 10.2142 0.660444 9.41911C0.000794617 9.03093 -0.18634 8.32006 0.197286 7.66063C0.987929 6.29032 1.77857 4.92001 2.56922 3.5497C2.80781 3.13347 3.15401 2.89027 3.64056 2.87157C3.8698 2.86221 4.08033 2.91833 4.27682 3.03058C4.37506 3.0867 4.47331 3.13814 4.57155 3.19894C4.64173 3.24571 4.66044 3.227 4.66044 3.14282C4.65577 2.82012 4.66044 2.49742 4.66044 2.17472C4.66044 1.86605 4.66044 1.55738 4.66044 1.25339C4.66512 0.533157 5.19378 0 5.90957 0C6.7236 0 7.53296 0 8.34232 0ZM3.67331 3.35795C3.39261 3.37199 3.16805 3.49826 3.02302 3.75548C2.22302 5.1445 1.42302 6.52884 0.623017 7.91785C0.38442 8.33409 0.496701 8.74565 0.908397 8.98417C2.29319 9.7839 3.67799 10.5836 5.0581 11.3787C5.45577 11.6079 5.87682 11.5003 6.11074 11.0981C6.38676 10.6257 6.6581 10.1534 6.92945 9.68101C7.4581 8.76435 7.99144 7.8477 8.52009 6.92637C8.60898 6.77203 8.65109 6.61302 8.6277 6.4353C8.58559 6.15469 8.41717 5.97697 8.17857 5.84602C7.73413 5.59347 7.29436 5.33625 6.84992 5.0837C5.93296 4.55522 5.016 4.02206 4.09436 3.49358C3.96805 3.41875 3.83237 3.36731 3.67331 3.35795ZM8.33296 0.486389C7.53764 0.486389 6.74231 0.486389 5.94699 0.486389C5.50255 0.486389 5.16571 0.781028 5.16103 1.18323C5.15635 1.9362 5.16103 2.68917 5.15635 3.43746C5.15635 3.50761 5.18442 3.55438 5.24524 3.58712C5.67565 3.83499 6.10138 4.07818 6.53179 4.33073C6.58325 4.36347 6.62536 4.36347 6.6815 4.33073C6.92009 4.18107 7.16805 4.16704 7.41132 4.30267C7.65927 4.44298 7.78559 4.66279 7.78091 4.94807C7.78091 5.03226 7.80898 5.07435 7.87916 5.11176C8.07565 5.21933 8.26278 5.33157 8.4546 5.44382C8.9505 5.7291 9.17039 6.15469 9.10957 6.72059C9.10021 6.82348 9.13296 6.83751 9.21717 6.83751C9.73179 6.83283 10.2464 6.83751 10.761 6.83751C10.8265 6.83751 10.892 6.83751 10.9575 6.8188C11.3084 6.71591 11.5049 6.43998 11.5049 6.03309C11.5049 4.45701 11.5049 2.87624 11.5049 1.30016C11.5049 1.20662 11.4909 1.11308 11.4675 1.02422C11.3692 0.692169 11.0885 0.495743 10.7002 0.495743C9.91892 0.486389 9.12828 0.486389 8.33296 0.486389Z" fill="white" stroke="white" stroke-width="0.2"/>
<path d="M4.57634 6.38379C5.15646 6.38379 5.61494 6.85615 5.61026 7.44075C5.60558 8.01132 5.13307 8.479 4.56231 8.47433C3.98687 8.47433 3.51435 7.99261 3.51903 7.41737C3.51903 6.84679 3.99622 6.38379 4.57634 6.38379Z" fill="white" stroke="white" stroke-width="0.2"/>
<path d="M9.60091 4.20923C9.99389 4.20923 10.312 4.53193 10.312 4.92478C10.312 5.31296 9.98922 5.64033 9.59623 5.64501C9.20793 5.64969 8.87109 5.30828 8.87577 4.9201C8.88044 4.53193 9.20793 4.20923 9.60091 4.20923Z" fill="white" stroke="white" stroke-width="0.2"/>
<path d="M7.7857 2.4085C7.7857 2.79668 7.44886 3.12873 7.06523 3.11938C6.67693 3.11002 6.34944 2.78265 6.34944 2.39915C6.35412 2.01097 6.68161 1.68359 7.06523 1.68359C7.46757 1.68827 7.79038 2.01097 7.7857 2.4085Z" fill="white" stroke="white" stroke-width="0.2"/>
<path d="M9.59623 1.68848C9.98921 1.68848 10.312 2.01118 10.312 2.39935C10.3167 2.78753 9.98453 3.11958 9.60091 3.11958C9.20793 3.12426 8.88044 2.79221 8.87576 2.39935C8.87576 2.02053 9.20793 1.68848 9.59623 1.68848Z" fill="white" stroke="white" stroke-width="0.2"/>
</g>
<defs>
<clipPath id="clip0_0_75">
<rect width="12" height="12" fill="white"/>
</clipPath>
</defs>
</svg>
