<svg width="24" height="24" viewBox="0 0 24 24" fill="none" xmlns="http://www.w3.org/2000/svg">
<rect width="24" height="24" rx="4" fill="#0F1010"/>
<path d="M7 10.642V6H8.87901C9.22426 6 9.51222 6.05062 9.7429 6.15186C9.97357 6.2531 10.147 6.39363 10.2631 6.57345C10.3792 6.75175 10.4372 6.95726 10.4372 7.18996C10.4372 7.37129 10.4005 7.53071 10.3272 7.66821C10.2539 7.80421 10.1531 7.91603 10.0247 8.00367C9.89795 8.0898 9.75283 8.151 9.58937 8.18726V8.2326C9.7681 8.24015 9.93538 8.29002 10.0912 8.38219C10.2485 8.47437 10.3761 8.60356 10.4739 8.76978C10.5716 8.93448 10.6205 9.13092 10.6205 9.35909C10.6205 9.6054 10.5587 9.82526 10.4349 10.0187C10.3127 10.2106 10.1317 10.3624 9.89184 10.4743C9.652 10.5861 9.3564 10.642 9.00504 10.642H7ZM7.99221 9.83961H8.8011C9.0776 9.83961 9.27925 9.78748 9.40605 9.68322C9.53284 9.57744 9.59624 9.43691 9.59624 9.26163C9.59624 9.13319 9.56493 9.01986 9.50229 8.92164C9.43966 8.82342 9.35029 8.74636 9.23419 8.69045C9.11962 8.63454 8.98289 8.60658 8.82401 8.60658H7.99221V9.83961ZM7.99221 7.94247H8.72777C8.86373 7.94247 8.98442 7.91905 9.08983 7.87221C9.19676 7.82385 9.28078 7.75586 9.34189 7.66821C9.40452 7.58057 9.43584 7.47555 9.43584 7.35316C9.43584 7.18543 9.3755 7.05019 9.25481 6.94744C9.13566 6.84468 8.96609 6.79331 8.7461 6.79331H7.99221V7.94247Z" fill="white"/>
<path d="M12.2584 6V10.642H11.2662V6H12.2584Z" fill="white"/>
<path d="M17 6V10.642H16.143L14.1013 7.72035H14.0669V10.642H13.0747V6H13.9455L15.9711 8.91937H16.0124V6H17Z" fill="white"/>
<path d="M10.5435 14.795C10.5114 14.6847 10.4663 14.5873 10.4083 14.5026C10.3502 14.4165 10.2792 14.344 10.1952 14.2851C10.1127 14.2246 10.018 14.1785 9.91103 14.1468C9.80563 14.1151 9.68876 14.0992 9.56044 14.0992C9.3206 14.0992 9.10978 14.1581 8.92799 14.276C8.74773 14.3938 8.60718 14.5654 8.50636 14.7905C8.40553 15.0141 8.35512 15.2876 8.35512 15.611C8.35512 15.9344 8.40477 16.2094 8.50407 16.436C8.60336 16.6627 8.74391 16.8357 8.9257 16.9551C9.10749 17.073 9.32212 17.1319 9.5696 17.1319C9.79417 17.1319 9.98589 17.0926 10.1448 17.014C10.3052 16.9339 10.4274 16.8214 10.5114 16.6763C10.5969 16.5312 10.6397 16.3597 10.6397 16.1618L10.8414 16.1913H9.63147V15.4523H11.5953V16.0371C11.5953 16.4451 11.5082 16.7957 11.334 17.0888C11.1599 17.3805 10.92 17.6056 10.6145 17.7643C10.309 17.9214 9.95915 18 9.56502 18C9.12506 18 8.73856 17.904 8.40553 17.7121C8.07251 17.5187 7.81281 17.2445 7.62643 16.8894C7.44159 16.5328 7.34916 16.1097 7.34916 15.6201C7.34916 15.2438 7.40416 14.9084 7.51415 14.6137C7.62567 14.3175 7.78149 14.0667 7.98161 13.8612C8.18173 13.6557 8.4147 13.4993 8.68051 13.392C8.94632 13.2847 9.23428 13.2311 9.5444 13.2311C9.81021 13.2311 10.0577 13.2696 10.2868 13.3467C10.516 13.4222 10.7192 13.5295 10.8964 13.6685C11.0751 13.8076 11.221 13.973 11.334 14.1649C11.4471 14.3553 11.5196 14.5654 11.5517 14.795H10.5435Z" fill="white"/>
<path d="M16.6531 15.6155C16.6531 16.1217 16.5561 16.5524 16.3621 16.9075C16.1696 17.2626 15.9069 17.5338 15.5738 17.7212C15.2423 17.9071 14.8696 18 14.4556 18C14.0386 18 13.6643 17.9063 13.3328 17.7189C13.0013 17.5316 12.7393 17.2603 12.5468 16.9052C12.3543 16.5501 12.2581 16.1202 12.2581 15.6155C12.2581 15.1093 12.3543 14.6787 12.5468 14.3236C12.7393 13.9685 13.0013 13.698 13.3328 13.5121C13.6643 13.3248 14.0386 13.2311 14.4556 13.2311C14.8696 13.2311 15.2423 13.3248 15.5738 13.5121C15.9069 13.698 16.1696 13.9685 16.3621 14.3236C16.5561 14.6787 16.6531 15.1093 16.6531 15.6155ZM15.6472 15.6155C15.6472 15.2876 15.5975 15.0111 15.4982 14.786C15.4005 14.5608 15.2622 14.3901 15.0835 14.2737C14.9047 14.1574 14.6954 14.0992 14.4556 14.0992C14.2158 14.0992 14.0065 14.1574 13.8277 14.2737C13.649 14.3901 13.51 14.5608 13.4107 14.786C13.3129 15.0111 13.264 15.2876 13.264 15.6155C13.264 15.9434 13.3129 16.22 13.4107 16.4451C13.51 16.6703 13.649 16.841 13.8277 16.9574C14.0065 17.0737 14.2158 17.1319 14.4556 17.1319C14.6954 17.1319 14.9047 17.0737 15.0835 16.9574C15.2622 16.841 15.4005 16.6703 15.4982 16.4451C15.5975 16.22 15.6472 15.9434 15.6472 15.6155Z" fill="white"/>
</svg>
