<svg width="11" height="12" viewBox="0 0 11 12" fill="none" xmlns="http://www.w3.org/2000/svg">
<g clip-path="url(#clip0_0_20)">
<path d="M4.19347 3.21063C3.89458 3.3325 3.61381 3.42625 3.32398 3.47313C2.73073 3.57625 2.16012 3.4825 1.60763 3.25281C1.01438 3.00906 0.493592 2.64813 0.0452594 2.17938C-2.66894e-05 2.13719 -0.0226698 2.10906 0.0316736 2.05281C0.656622 1.41531 1.3812 0.955939 2.25069 0.768439C3.0115 0.604377 3.72702 0.768439 4.41084 1.12C4.69162 1.26531 4.9588 1.43406 5.20335 1.64031C5.26222 1.69188 5.29845 1.69656 5.36185 1.63563C6.24946 0.76844 7.29557 0.238752 8.50471 0.0559395C9.03003 -0.023748 9.55535 0.00437702 10.0943 -0.000310478C10.0761 0.0559395 10.0399 0.079377 10.0082 0.11219C9.69573 0.440315 9.36514 0.749689 9.10248 1.12469C8.54999 1.91688 8.27828 2.79813 8.27828 3.77781C8.27828 4.36844 8.28281 4.95906 8.27828 5.545C8.27828 5.65281 8.30092 5.695 8.40961 5.71375C9.67309 5.92938 10.6377 6.87156 10.923 8.15594C11.3079 9.89969 10.1486 11.6809 8.44131 11.9528C7.51747 12.1028 6.69326 11.8638 5.96869 11.2497C5.89623 11.1888 5.86453 11.2216 5.81018 11.2638C4.13913 12.7169 1.55782 11.9153 0.937396 9.74969C0.393963 7.85125 1.61216 5.98094 3.43266 5.70906C3.51418 5.695 3.53682 5.67156 3.54135 5.59188C3.59569 4.7575 3.80854 3.97469 4.19347 3.21063ZM5.56564 8.83563C5.56564 10.1903 6.62986 11.2966 7.93863 11.2966C9.2474 11.2966 10.3162 10.195 10.3207 8.84031C10.3252 7.48563 9.25193 6.37469 7.93863 6.37469C6.62533 6.37469 5.56564 7.48094 5.56564 8.83563ZM1.48536 8.82625C1.49442 8.94813 1.49442 9.06063 1.51253 9.17781C1.66197 10.1153 2.16012 10.7763 3.0115 11.1231C3.84929 11.4606 4.63727 11.3106 5.35732 10.7528C5.43884 10.6872 5.43431 10.645 5.38449 10.5559C4.70973 9.40281 4.70973 8.24969 5.39355 7.10125C5.44789 7.0075 5.42978 6.97 5.35732 6.91844C4.57387 6.31375 3.72702 6.18719 2.84847 6.62313C1.96086 7.05906 1.53064 7.82313 1.48536 8.82625ZM8.49112 0.777815C8.47754 0.777815 8.45942 0.777815 8.44584 0.777815C7.58993 0.932502 6.81554 1.28406 6.14077 1.85125C4.99956 2.81219 4.36103 4.05438 4.22064 5.57313C4.21158 5.6575 4.22517 5.695 4.31574 5.70906C4.89088 5.79813 5.39808 6.03719 5.83735 6.42156C5.88264 6.45906 5.90981 6.46844 5.95963 6.42625C6.40343 6.0325 6.91516 5.79344 7.4903 5.70438C7.5854 5.69031 7.59899 5.64813 7.59899 5.56375C7.59446 4.96844 7.59899 4.36844 7.59899 3.77313C7.59899 2.71375 7.88429 1.74344 8.45037 0.862189C8.46848 0.838752 8.49565 0.815315 8.49112 0.777815ZM2.86206 2.81219C3.50965 2.79813 4.08931 2.53094 4.62822 2.15125C4.67803 2.11844 4.66444 2.095 4.62369 2.06688C4.54217 2.01531 4.46519 1.95906 4.3882 1.9075C3.95345 1.63563 3.49153 1.43875 2.9798 1.41063C2.25975 1.37313 1.63933 1.65906 1.0642 2.06688C1.01438 2.09969 1.02797 2.12313 1.06873 2.15125C1.1593 2.2075 1.24534 2.27313 1.33591 2.32938C1.79783 2.61531 2.29598 2.8075 2.86206 2.81219Z" fill="white"/>
<path d="M6.58459 8.83594C6.50307 8.83594 6.41703 8.83125 6.33551 8.83594C6.25853 8.84063 6.24041 8.80782 6.24494 8.7375C6.30381 8.025 6.65252 7.51875 7.27294 7.21875C7.45408 7.13438 7.64428 7.09219 7.84354 7.07813C7.91147 7.07344 7.9477 7.08282 7.94317 7.16719C7.93864 7.34063 7.93864 7.51876 7.94317 7.69219C7.94317 7.75782 7.92506 7.77657 7.86166 7.78125C7.33634 7.84219 6.9831 8.20782 6.92876 8.75625C6.92423 8.82188 6.89706 8.83594 6.84272 8.83125C6.75667 8.83594 6.67063 8.83594 6.58459 8.83594Z" fill="white"/>
<path d="M3.86289 7.42986C3.86289 7.53299 3.89459 7.65486 3.85383 7.73924C3.80855 7.8283 3.67269 7.7908 3.58212 7.81893C3.17001 7.95018 2.88924 8.29705 2.85301 8.74705C2.84848 8.81268 2.83037 8.83142 2.76697 8.83142C2.59941 8.82674 2.43638 8.82205 2.26882 8.83142C2.17372 8.83611 2.16919 8.79392 2.16919 8.71424C2.19636 8.00642 2.70357 7.34549 3.38286 7.13924C3.51419 7.10174 3.64552 7.0783 3.78138 7.06893C3.84478 7.06424 3.87195 7.0783 3.86742 7.1533C3.86289 7.25174 3.86742 7.3408 3.86289 7.42986Z" fill="white"/>
</g>
<defs>
<clipPath id="clip0_0_20">
<rect width="11" height="12" fill="white"/>
</clipPath>
</defs>
</svg>
