<svg width="12" height="12" viewBox="0 0 12 12" fill="none" xmlns="http://www.w3.org/2000/svg">
<g clip-path="url(#clip0_0_86)">
<path d="M6.27889 1.85876C6.27889 1.34813 6.27889 0.837488 6.27889 0.326849C6.27889 0.143019 6.20213 0.0357854 6.04861 0.00514705C5.91557 -0.0203849 5.7774 0.0613173 5.7467 0.194083C5.73134 0.250253 5.73134 0.31153 5.73134 0.372807C5.73134 1.37876 5.72623 2.38983 5.73134 3.39579C5.73134 3.51834 5.69552 3.53366 5.58294 3.54387C5.27591 3.55919 5.00469 3.4877 4.72324 3.34472C2.75821 2.33876 0.353092 3.58983 0.0409384 5.77536C-0.122814 6.91919 0.235394 7.8894 1.07463 8.68089C1.1258 8.72685 1.14627 8.77791 1.15139 8.8443C1.20768 9.54898 1.26397 10.2537 1.31514 10.9583C1.36119 11.5098 1.74499 11.9337 2.29765 11.9745C2.77868 12.0103 3.2597 12.0154 3.74073 11.9694C4.23198 11.9234 4.62601 11.5251 4.67207 11.0298C4.72836 10.4426 4.77441 9.85025 4.81535 9.26302C4.82047 9.166 4.85629 9.13025 4.93817 9.10472C5.12239 9.04855 5.30661 8.99749 5.50107 8.99749C6.01791 8.99238 6.53987 8.93621 7.04648 9.10472C7.13859 9.13536 7.1693 9.17621 7.17441 9.27323C7.21535 9.85536 7.26141 10.4375 7.3177 11.0145C7.37399 11.5405 7.75778 11.9337 8.28486 11.9745C8.76588 12.0103 9.24691 12.0154 9.72793 11.9694C10.2397 11.9234 10.6337 11.4945 10.6746 10.9839C10.7309 10.2741 10.7872 9.5694 10.8384 8.85962C10.8435 8.77791 10.8742 8.72174 10.9356 8.66557C11.7032 7.89962 12.0716 6.98047 11.9744 5.89791C11.8465 4.50898 10.7156 3.30387 9.33902 3.05876C8.5049 2.91068 7.72196 3.05366 6.99531 3.49791C6.94414 3.52855 6.89296 3.54898 6.82644 3.54898C6.67804 3.54387 6.52964 3.54387 6.38124 3.54898C6.28913 3.55408 6.26866 3.52345 6.26866 3.43664C6.27889 2.90557 6.27889 2.37962 6.27889 1.85876ZM3.00896 11.4332C2.81962 11.4332 2.62516 11.4332 2.43582 11.4332C2.09296 11.4281 1.88316 11.2239 1.85757 10.8817C1.80128 10.1464 1.73987 9.41621 1.6887 8.68089C1.67846 8.5277 1.61706 8.42557 1.50448 8.32345C0.788059 7.70047 0.465672 6.90387 0.5629 5.9694C0.772708 3.93196 3.07036 2.86472 4.77953 3.99323C4.86652 4.05451 4.95864 4.08004 5.0661 4.08004C5.68017 4.07493 6.29424 4.07493 6.90832 4.08004C7.03113 4.08004 7.13859 4.0494 7.24094 3.98302C8.11087 3.44174 9.01663 3.38047 9.94286 3.82472C10.9817 4.32004 11.5855 5.45366 11.4269 6.59238C11.3296 7.29196 11.0021 7.87919 10.4751 8.34898C10.3983 8.42047 10.3318 8.48685 10.3215 8.6043C10.2652 9.36515 10.2038 10.1311 10.1475 10.892C10.122 11.2137 9.91215 11.4281 9.58465 11.4332C9.19574 11.4383 8.80682 11.4383 8.42303 11.4332C8.10576 11.4281 7.89595 11.229 7.87036 10.9175C7.81919 10.2843 7.76802 9.646 7.71684 9.0077C7.70661 8.85451 7.6452 8.74728 7.49168 8.686C7.32281 8.61962 7.14883 8.55323 6.96972 8.51238C6.5194 8.40515 6.06397 8.446 5.60853 8.446C5.23497 8.446 4.87676 8.53791 4.52878 8.68089C4.36503 8.74728 4.29851 8.85962 4.28827 9.03323C4.24222 9.66642 4.19104 10.2945 4.13987 10.9277C4.11429 11.229 3.89936 11.4281 3.60256 11.4383C3.40298 11.4383 3.20853 11.4332 3.00896 11.4332Z" fill="white"/>
<path d="M7.09253 6.27077C7.09253 6.35247 7.09253 6.43418 7.09253 6.51077C7.09765 6.84779 7.31769 7.06737 7.65031 7.07758C7.90106 7.08779 7.90106 7.08779 7.91129 7.33801C7.92153 7.65971 8.13645 7.87928 8.45884 7.88949C8.63795 7.8946 8.81705 7.8946 8.99616 7.88949C9.32366 7.87928 9.53859 7.64949 9.54882 7.32269C9.55394 7.07758 9.55394 7.07758 9.78933 7.07247C10.1373 7.06226 10.3625 6.83758 10.3676 6.49035C10.3676 6.33205 10.3676 6.17375 10.3676 6.02056C10.3625 5.66311 10.1424 5.44354 9.78422 5.43843C9.55394 5.43333 9.55394 5.43333 9.54882 5.20354C9.5437 4.84609 9.32366 4.62652 8.96545 4.62141C8.8017 4.62141 8.63283 4.6163 8.46908 4.62141C8.14669 4.62652 7.92665 4.84609 7.91641 5.16779C7.90618 5.43332 7.90618 5.43333 7.64008 5.43843C7.32793 5.44864 7.10788 5.66822 7.09765 5.97971C7.09253 6.08184 7.09765 6.17886 7.09253 6.27077ZM8.72494 5.1729C8.99104 5.1729 8.99104 5.1729 9.00127 5.43843C9.00127 5.44864 9.00127 5.45375 9.00127 5.46396C9.02686 5.76013 9.24178 5.9746 9.52835 5.98992C9.62046 5.99503 9.74328 5.94907 9.79957 6.01035C9.86097 6.07673 9.82004 6.19928 9.82004 6.2912C9.82515 6.52609 9.82004 6.52609 9.57952 6.5312C9.2469 6.5363 9.02174 6.75077 9.00127 7.07758C8.99616 7.16439 9.04221 7.28184 8.97569 7.3329C8.90916 7.38907 8.79658 7.34822 8.70447 7.34822C8.46396 7.34822 8.46396 7.34822 8.45884 7.10311C8.45373 6.7763 8.23368 6.55162 7.91129 6.5312C7.8243 6.52609 7.7066 6.57205 7.65543 6.50567C7.61449 6.44439 7.64008 6.33715 7.64008 6.24524C7.64008 5.98992 7.64008 5.98992 7.89594 5.98481C8.21833 5.97971 8.44861 5.74992 8.45884 5.42822C8.46396 5.1729 8.46396 5.1729 8.72494 5.1729Z" fill="white"/>
<path d="M3.8226 6.2604C3.8226 6.71487 4.19104 7.08253 4.64136 7.08253C5.08656 7.08253 5.46524 6.70466 5.46012 6.2604C5.45501 5.81104 5.09168 5.45359 4.64648 5.44849C4.18592 5.44849 3.81748 5.80593 3.8226 6.2604ZM4.64136 6.53104C4.48784 6.53104 4.36503 6.41359 4.36503 6.2604C4.36503 6.11742 4.48784 5.99487 4.63113 5.98976C4.78464 5.98466 4.90746 6.10721 4.90746 6.2604C4.90746 6.41359 4.78976 6.53104 4.64136 6.53104Z" fill="white"/>
<path d="M4.08868 5.16258C4.08868 4.70811 3.71512 4.35066 3.25969 4.35577C2.81448 4.36087 2.45116 4.72853 2.45116 5.17279C2.45116 5.62215 2.82472 5.98981 3.27504 5.98981C3.73048 5.98981 4.08868 5.62215 4.08868 5.16258ZM3.00382 5.17279C3.00382 5.0247 3.12152 4.90215 3.2648 4.90215C3.4132 4.89704 3.54114 5.0247 3.54114 5.17279C3.54114 5.32087 3.4132 5.44853 3.2648 5.44343C3.12152 5.44343 3.00382 5.32087 3.00382 5.17279Z" fill="white"/>
<path d="M1.91387 5.44854C1.45843 5.44343 1.08999 5.80599 1.08999 6.26045C1.08487 6.70982 1.45843 7.08258 1.90875 7.08258C2.35396 7.08258 2.7224 6.72003 2.72752 6.27577C2.73263 5.8162 2.36931 5.44854 1.91387 5.44854ZM1.90364 6.53109C1.75012 6.53109 1.6273 6.40343 1.63242 6.25535C1.63754 6.11237 1.76035 5.98982 1.90875 5.99492C2.05204 5.99492 2.17485 6.11748 2.17997 6.26045C2.18509 6.40854 2.05715 6.53109 1.90364 6.53109Z" fill="white"/>
<path d="M3.26992 8.1651C3.73048 8.1651 4.08868 7.80255 4.08868 7.34808C4.08868 6.89361 3.71512 6.52595 3.26992 6.53106C2.8196 6.53616 2.45116 6.90893 2.45627 7.35829C2.45627 7.80765 2.82472 8.1651 3.26992 8.1651ZM3.00382 7.35319C3.00382 7.2051 3.1164 7.08765 3.2648 7.08255C3.41832 7.07744 3.54114 7.19999 3.54625 7.34808C3.54625 7.49106 3.42856 7.61872 3.28527 7.61872C3.13175 7.62893 3.00382 7.50638 3.00382 7.35319Z" fill="white"/>
</g>
<defs>
<clipPath id="clip0_0_86">
<rect width="12" height="12" fill="white" transform="matrix(-1 0 0 1 12 0)"/>
</clipPath>
</defs>
</svg>
