<svg width="24" height="24" viewBox="0 0 24 24" fill="none" xmlns="http://www.w3.org/2000/svg">
<rect width="24" height="24" rx="4" fill="#0F1010"/>
<path d="M11.9977 17.9953C10.2016 17.9953 8.40094 17.9953 6.60492 17.9953C6.20633 17.9953 6 17.7892 6 17.3909C6 17.3487 6 17.3065 6 17.2644C6.00469 16.9364 6.2204 16.7115 6.54865 16.7115C6.72685 16.7115 6.90973 16.7068 7.08792 16.7115C7.16764 16.7162 7.20985 16.6927 7.24736 16.6131C7.61782 15.8166 7.98828 15.0247 8.36342 14.2282C8.39625 14.1579 8.39156 14.111 8.33998 14.0548C7.70692 13.3286 7.30832 12.4852 7.1864 11.5246C6.99414 10.0159 7.41149 8.68522 8.43845 7.5607C9.13247 6.79697 10 6.3003 11.0129 6.10351C12.7386 5.77553 14.2485 6.22533 15.4818 7.47636C16.5135 8.52123 16.9543 9.80037 16.8464 11.2622C16.7714 12.2931 16.3822 13.2067 15.7116 13.9939C15.6225 14.097 15.6131 14.1719 15.6741 14.2985C16.0399 15.0669 16.3962 15.8353 16.7573 16.6084C16.7902 16.6834 16.8324 16.7115 16.9121 16.7115C17.095 16.7068 17.2778 16.7068 17.4607 16.7115C17.7749 16.7162 17.9953 16.9364 18 17.2503C18 17.3065 18 17.3581 18 17.4143C18 17.7845 17.7843 18 17.4185 18C17.1606 18 16.9027 18 16.6448 18C15.102 17.9953 13.5498 17.9953 11.9977 17.9953ZM15.3411 10.8593C15.3411 9.01789 13.8406 7.52322 12.0023 7.52322C10.1594 7.52322 8.66354 9.02258 8.66354 10.8593C8.66354 12.7007 10.1641 14.1954 12.0023 14.1954C13.8453 14.2001 15.3411 12.7007 15.3411 10.8593ZM12.0023 17.0582C10.211 17.0582 8.42438 17.0582 6.63306 17.0582C6.59555 17.0582 6.55334 17.0535 6.51583 17.0582C6.41735 17.0676 6.36108 17.1285 6.3517 17.2269C6.34701 17.2503 6.3517 17.2737 6.3517 17.2972C6.3517 17.6252 6.37046 17.6439 6.68933 17.6439C10.2485 17.6439 13.8077 17.6439 17.3669 17.6439C17.4045 17.6439 17.4467 17.6486 17.4842 17.6439C17.5826 17.6345 17.6389 17.5736 17.6483 17.4752C17.653 17.4284 17.6483 17.3815 17.6483 17.3347C17.6483 17.1004 17.6061 17.0582 17.3669 17.0582C15.5803 17.0582 13.7937 17.0582 12.0023 17.0582ZM9.21688 16.7021C11.0785 16.7021 12.9308 16.7021 14.7784 16.7021C14.7831 16.6599 14.7644 16.6318 14.7503 16.599C14.5815 16.168 14.4127 15.7369 14.2485 15.3012C14.2157 15.2121 14.1876 15.2028 14.1032 15.2449C13.4936 15.5401 12.8511 15.6994 12.1758 15.7228C11.3787 15.751 10.6143 15.5917 9.89683 15.2402C9.82649 15.2028 9.79367 15.2121 9.76553 15.2918C9.62485 15.6666 9.47479 16.0415 9.32943 16.4163C9.29191 16.5053 9.2544 16.599 9.21688 16.7021ZM16.0961 10.6859C16.1946 10.6859 16.2931 10.6766 16.3869 10.6859C16.49 10.6953 16.5088 10.6578 16.5041 10.5641C16.4291 9.5333 16.0445 8.63368 15.3646 7.85589C15.3177 7.80435 15.2943 7.81841 15.2567 7.86057C15.102 8.0152 14.9472 8.16982 14.7925 8.32444C14.7456 8.37129 14.7456 8.39472 14.7878 8.44626C15.3271 9.06943 15.6272 9.791 15.6835 10.611C15.6882 10.6719 15.7116 10.6906 15.7679 10.6906C15.8804 10.6812 15.9883 10.6859 16.0961 10.6859ZM7.90856 11.0373C7.88042 11.0373 7.85229 11.0373 7.82884 11.0373C7.72567 11.042 7.58499 10.9952 7.52403 11.0561C7.45369 11.1264 7.51465 11.2622 7.52403 11.37C7.63189 12.3165 8.00703 13.1458 8.6354 13.858C8.67761 13.9096 8.70574 13.9142 8.75264 13.8627C8.9027 13.7034 9.05744 13.5488 9.21688 13.3988C9.26377 13.352 9.25909 13.3239 9.22157 13.277C8.6823 12.6538 8.38218 11.9323 8.32591 11.1123C8.32122 11.0514 8.29777 11.0327 8.2415 11.0373C8.12427 11.0373 8.01641 11.0373 7.90856 11.0373ZM7.89918 10.6859C8.01172 10.6859 8.12427 10.6812 8.23681 10.6859C8.29777 10.6859 8.31653 10.6672 8.32122 10.6063C8.37749 9.78632 8.6823 9.06475 9.21688 8.44158C9.25909 8.39004 9.25909 8.36192 9.21219 8.31975C9.05744 8.16982 8.9027 8.01988 8.75733 7.86526C8.70106 7.80435 8.67292 7.81841 8.62603 7.87463C8.29777 8.24947 8.03517 8.6618 7.84291 9.11629C7.64596 9.58484 7.52872 10.0768 7.50059 10.5875C7.4959 10.6625 7.51465 10.6906 7.59437 10.6859C7.69285 10.6812 7.79601 10.6859 7.89918 10.6859ZM16.1008 11.0373C15.9977 11.0373 15.8898 11.042 15.7866 11.0373C15.7116 11.0327 15.6835 11.0561 15.6835 11.1357C15.6788 11.2435 15.6647 11.3513 15.646 11.459C15.5334 12.1478 15.2474 12.7522 14.7925 13.277C14.7456 13.3332 14.7456 13.3614 14.7972 13.4082C14.9519 13.5581 15.1067 13.7081 15.2521 13.8627C15.3036 13.9189 15.3318 13.9096 15.3787 13.858C15.6084 13.5909 15.8148 13.3051 15.9789 12.9959C16.2884 12.4149 16.4666 11.8011 16.5088 11.1451C16.5135 11.0655 16.4947 11.0327 16.4103 11.042C16.3072 11.042 16.204 11.0373 16.1008 11.0373ZM12.3634 15.3574C12.4525 15.348 12.5416 15.3386 12.6307 15.3246C13.5311 15.1981 14.3142 14.8279 14.9988 14.2329C15.0504 14.186 15.0598 14.1579 15.0035 14.1063C14.8488 13.9564 14.694 13.8065 14.5487 13.6519C14.4971 13.6003 14.4689 13.6003 14.4174 13.6519C14.3517 13.7175 14.272 13.7737 14.197 13.8299C13.6295 14.2469 12.9965 14.4859 12.2931 14.5421C12.204 14.5468 12.1712 14.5749 12.1758 14.6686C12.1852 14.842 12.1758 15.02 12.1758 15.1934C12.1805 15.3667 12.1805 15.3667 12.3634 15.3574ZM12.1805 6.75948C12.1805 6.84851 12.1899 6.94222 12.1805 7.02656C12.1665 7.14369 12.2134 7.17649 12.3259 7.18586C13.1231 7.25146 13.8218 7.55133 14.422 8.07611C14.4689 8.11828 14.4971 8.12296 14.544 8.07611C14.694 7.9168 14.8488 7.76218 15.0082 7.61224C15.0598 7.56539 15.0504 7.53728 15.0035 7.49511C14.2204 6.80634 13.306 6.4315 12.2649 6.36121C12.204 6.35653 12.1805 6.37527 12.1805 6.43618C12.1805 6.54395 12.1805 6.65172 12.1805 6.75948ZM11.8242 6.77354C11.8242 6.66109 11.8242 6.54863 11.8242 6.43618C11.8242 6.37527 11.8054 6.35653 11.7397 6.36121C10.6987 6.4315 9.78429 6.80634 9.00117 7.49511C8.94021 7.54665 8.95428 7.57476 9.00117 7.62161C9.15123 7.76686 9.30129 7.9168 9.44666 8.06674C9.49824 8.12296 9.53107 8.12296 9.58734 8.07142C9.80774 7.87463 10.0563 7.71064 10.3236 7.57476C10.7456 7.35923 11.1911 7.22335 11.6647 7.19055C11.7866 7.18118 11.8429 7.14838 11.8242 7.02187C11.8148 6.93753 11.8242 6.85788 11.8242 6.77354ZM11.8288 14.9591C11.8288 14.8701 11.8195 14.7764 11.8288 14.692C11.8429 14.5702 11.796 14.5421 11.6835 14.5327C10.8863 14.4671 10.1876 14.1673 9.58734 13.6425C9.54045 13.6003 9.51231 13.5956 9.46542 13.6425C9.31536 13.8018 9.16061 13.9564 9.00117 14.1063C8.94959 14.1532 8.95897 14.1813 9.00586 14.2235C9.78898 14.9123 10.7034 15.2871 11.7444 15.3574C11.8054 15.3621 11.8288 15.3433 11.8288 15.2824C11.8242 15.1793 11.8242 15.0716 11.8288 14.9591ZM16.415 16.7068C16.3681 16.6084 16.3353 16.5288 16.2931 16.4491C15.9883 15.7978 15.6835 15.1512 15.3834 14.4999C15.3599 14.4484 15.3505 14.3828 15.2708 14.4578C15.0598 14.6546 14.83 14.8279 14.5815 14.9825C14.5299 15.0106 14.5205 15.0434 14.544 15.095C14.7456 15.6104 14.9472 16.1258 15.1489 16.6412C15.1676 16.6881 15.1864 16.7115 15.238 16.7115C15.6225 16.7021 16.007 16.7068 16.415 16.7068ZM7.58968 16.7068C7.99766 16.7068 8.38218 16.7068 8.76671 16.7068C8.83705 16.7068 8.84642 16.6646 8.86518 16.6178C9.05744 16.1164 9.2544 15.6151 9.45135 15.1137C9.47948 15.0388 9.47011 15.006 9.40445 14.9638C9.1653 14.8185 8.9449 14.6546 8.74326 14.4624C8.67292 14.3968 8.65416 14.4203 8.61665 14.4952C8.48535 14.7857 8.34936 15.0762 8.21336 15.3621C8.01172 15.8072 7.80539 16.2476 7.58968 16.7068Z" fill="white" stroke="white" stroke-width="0.2"/>
<path d="M13.1137 10.8452C13.095 11.4543 12.6635 11.9182 12.0961 11.9697C11.5381 12.0166 11.027 11.6417 10.9144 11.0842C10.8347 10.7046 10.9379 10.3626 11.2098 10.0862C11.2708 10.0252 11.3036 9.95964 11.3177 9.8753C11.388 9.50515 11.4631 9.13499 11.5381 8.76484C11.6037 8.44154 11.8757 8.26818 12.1571 8.37126C12.34 8.43685 12.4338 8.57742 12.4666 8.76484C12.5369 9.13031 12.612 9.50046 12.6823 9.86593C12.7011 9.95496 12.7339 10.0299 12.7995 10.0955C13.0152 10.3064 13.1137 10.5734 13.1137 10.8452ZM12.762 10.8593C12.762 10.4422 12.4244 10.1002 12.0023 10.1002C11.585 10.1002 11.2427 10.4376 11.2427 10.8546C11.238 11.2763 11.585 11.623 12.007 11.6183C12.4244 11.6183 12.762 11.2763 12.762 10.8593ZM11.7116 9.71131C11.6882 9.78159 11.7163 9.78628 11.7679 9.77222C11.9273 9.73474 12.0867 9.73474 12.2415 9.77222C12.2931 9.78628 12.3118 9.77691 12.2978 9.716C12.2368 9.41144 12.1758 9.10688 12.1149 8.80232C12.1055 8.7461 12.0727 8.69924 12.007 8.69456C11.9367 8.68987 11.9039 8.74141 11.8898 8.80232C11.8288 9.11157 11.7679 9.41612 11.7116 9.71131Z" fill="white" stroke="white" stroke-width="0.2"/>
<path d="M11.9977 12.9114C11.7397 12.9114 11.4818 12.9114 11.2239 12.9114C11.0879 12.9114 11.0082 12.8459 11.0082 12.7335C11.0082 12.6258 11.0879 12.5603 11.2239 12.5603C11.7444 12.5603 12.2603 12.5603 12.7808 12.5603C12.9168 12.5603 12.9965 12.6258 12.9965 12.7382C12.9965 12.8459 12.9168 12.9114 12.7808 12.9114C12.5182 12.9114 12.2603 12.9114 11.9977 12.9114Z" fill="white" stroke="white" stroke-width="0.2"/>
<path d="M10.4174 12.9114C10.2579 12.9114 10.1688 12.8318 10.1923 12.7054C10.211 12.6024 10.2814 12.5603 10.4361 12.5603C10.5674 12.5603 10.6378 12.6118 10.6518 12.7101C10.6659 12.8365 10.5815 12.9114 10.4174 12.9114Z" fill="white" stroke="white" stroke-width="0.2"/>
<path d="M13.578 12.9112C13.4326 12.9112 13.3529 12.8457 13.3529 12.7333C13.3529 12.621 13.4326 12.5601 13.578 12.5554C13.7233 12.5554 13.7937 12.5976 13.8124 12.6959C13.8359 12.8316 13.7468 12.9112 13.578 12.9112Z" fill="white" stroke="white" stroke-width="0.2"/>
<path d="M12.0023 11.0325C11.9555 11.0325 11.9086 11.0371 11.8617 11.0325C11.7632 11.0137 11.7116 10.9529 11.7163 10.8546C11.721 10.7609 11.7773 10.7001 11.8664 10.6907C11.9508 10.6813 12.0399 10.686 12.1243 10.6907C12.2274 10.6954 12.2931 10.7656 12.2978 10.8592C12.2978 10.9576 12.2321 11.0325 12.1243 11.0371C12.0774 11.0371 12.0399 11.0371 12.0023 11.0325Z" fill="white" stroke="white" stroke-width="0.2"/>
</svg>
