<svg width="24" height="24" viewBox="0 0 24 24" fill="none" xmlns="http://www.w3.org/2000/svg">
<rect width="24" height="24" rx="4" fill="#F29C1F"/>
<path d="M16.8192 8.89097L13.3666 6.4727C12.4256 5.81262 10.981 5.84863 10.0759 6.55071L7.07293 8.89697C6.47353 9.36502 6 10.3251 6 11.0812V15.2217C6 16.7519 7.24076 18 8.76923 18H15.2308C16.7592 18 18 16.7579 18 15.2277V11.1592C18 10.3491 17.4785 9.35302 16.8192 8.89097ZM12.4496 15.5997C12.4496 15.8458 12.2458 16.0498 12 16.0498C11.7542 16.0498 11.5504 15.8458 11.5504 15.5997V13.7995C11.5504 13.5535 11.7542 13.3495 12 13.3495C12.2458 13.3495 12.4496 13.5535 12.4496 13.7995V15.5997Z" fill="#151515"/>
</svg>
