<svg width="12" height="12" viewBox="0 0 12 12" fill="none" xmlns="http://www.w3.org/2000/svg">
<g clip-path="url(#clip0_0_29)">
<path d="M5.554 7.10789C5.50705 7.35202 5.4648 7.57737 5.42254 7.80272C5.3709 8.07033 5.4648 8.1877 5.7371 8.1877C5.92489 8.1877 6.11268 8.1877 6.30048 8.1877C6.52113 8.18301 6.61973 8.07033 6.58686 7.84967C6.5493 7.61024 6.50235 7.37549 6.45541 7.13606C6.49766 7.11258 6.52583 7.15014 6.554 7.16423C7.02818 7.38488 7.57278 7.24873 7.88264 6.83089C8.1878 6.41305 8.15963 5.84028 7.79343 5.4647C7.28639 4.94357 6.76996 4.43653 6.25353 3.92479C6.0986 3.76986 5.91081 3.76986 5.75588 3.92479C5.23944 4.43653 4.72301 4.94357 4.21597 5.4647C3.84977 5.84028 3.81691 6.41305 4.12677 6.8262C4.43663 7.24404 4.98592 7.38019 5.45541 7.15484C5.47888 7.14075 5.50705 7.13136 5.554 7.10789Z" fill="white"/>
<path d="M5.85447 11.1314C5.85447 10.8873 5.84978 10.6478 5.85917 10.4037C5.86386 10.3098 5.831 10.277 5.7371 10.2723C4.84039 10.2159 4.03757 9.90606 3.33335 9.34737C3.31926 9.33329 3.30518 9.3192 3.2864 9.30981C3.21128 9.25817 3.15494 9.1408 3.07044 9.15019C3.00001 9.15958 2.93898 9.26287 2.87795 9.3239C2.56809 9.63376 2.25354 9.94831 1.94368 10.2582C1.88734 10.3145 1.86856 10.3427 1.93898 10.4084C3.0141 11.3802 4.27701 11.9061 5.72302 11.9906C5.82631 11.9953 5.86386 11.9765 5.85917 11.8638C5.84978 11.6244 5.85447 11.3802 5.85447 11.1314Z" fill="white"/>
<path d="M5.85447 0.858989C5.85447 0.610163 5.84977 0.356642 5.85447 0.107816C5.85447 0.0186137 5.8263 -0.0048605 5.74179 -0.00016567C4.41315 0.0702569 3.23006 0.516266 2.19719 1.35664C2.1033 1.43176 2.01409 1.51627 1.92489 1.59608C1.87794 1.63833 1.86386 1.66181 1.9155 1.71345C2.28639 2.07965 2.65259 2.44584 3.01409 2.81674C3.07513 2.87777 3.1033 2.84021 3.14555 2.80735C3.72771 2.29091 4.39907 1.95289 5.16433 1.79796C5.35212 1.7604 5.53992 1.73223 5.7324 1.72753C5.8263 1.72284 5.85916 1.69936 5.85447 1.60077C5.84977 1.34725 5.85447 1.10312 5.85447 0.858989Z" fill="white"/>
<path d="M6.14554 11.1547C6.14554 11.3989 6.15024 11.6477 6.14554 11.8918C6.14085 11.9857 6.17371 11.9998 6.25822 11.9951C7.59155 11.9247 8.77935 11.474 9.81221 10.6336C9.90141 10.5585 9.98592 10.4787 10.0798 10.4036C10.1268 10.3613 10.1362 10.3331 10.0845 10.2862C9.71362 9.92 9.34742 9.55381 8.98123 9.18291C8.92019 9.12188 8.89202 9.15944 8.84977 9.197C8.35212 9.64301 7.78404 9.95287 7.14085 10.1313C6.84508 10.2111 6.54461 10.2627 6.24414 10.2768C6.16902 10.2815 6.14554 10.305 6.14554 10.3801C6.14554 10.6383 6.14554 10.8965 6.14554 11.1547Z" fill="white"/>
<path d="M11.1455 6.14551C10.9014 6.14551 10.6526 6.15021 10.4085 6.14082C10.3099 6.13612 10.2817 6.16898 10.277 6.26288C10.2254 7.12204 9.93428 7.89668 9.41315 8.58682C9.33804 8.68542 9.26292 8.77462 9.17841 8.86382C9.13616 8.91077 9.14085 8.93424 9.18311 8.9765C9.554 9.34269 9.92019 9.70889 10.2864 10.0798C10.3474 10.1408 10.3709 10.1126 10.4132 10.0657C11.1972 9.21593 11.6901 8.22063 11.9061 7.08448C11.9531 6.82157 11.9765 6.55866 12 6.29575C12.0094 6.18307 11.9906 6.13612 11.8639 6.14551C11.6244 6.1549 11.385 6.14551 11.1455 6.14551Z" fill="white"/>
<path d="M0.0140867 6.41307C0.112678 7.72762 0.586857 8.88724 1.43662 9.89663C1.50235 9.97645 1.56808 10.1032 1.65258 10.1126C1.7324 10.1173 1.80282 9.99053 1.87324 9.92011C2.1831 9.61025 2.49296 9.30039 2.80282 8.99523C2.85446 8.94358 2.85916 8.91072 2.80751 8.85438C2.15963 8.12199 1.79343 7.26753 1.7277 6.291C1.71831 6.17363 1.68545 6.13607 1.56338 6.14077C1.0892 6.15016 0.610331 6.15016 0.136153 6.14077C0.014087 6.14077 -0.0140822 6.17832 0.00469708 6.28631C0.0140867 6.32856 0.00939178 6.37081 0.0140867 6.41307Z" fill="white"/>
<path d="M6.14555 0.85438C6.14555 1.10321 6.15024 1.35203 6.14555 1.60555C6.14555 1.69476 6.16902 1.71823 6.25353 1.72292C7.11268 1.77457 7.89203 2.06095 8.57747 2.58208C8.67606 2.6572 8.77465 2.73701 8.86386 2.82152C8.9108 2.86377 8.93428 2.85908 8.97653 2.81682C9.34273 2.45062 9.69954 2.08912 10.0657 1.72762C10.1315 1.66189 10.1221 1.63372 10.061 1.57738C9.20188 0.798042 8.20658 0.305085 7.07043 0.093817C6.80752 0.0468686 6.53522 0.0186996 6.26761 -7.97156e-05C6.17372 -0.00477455 6.13616 0.0140048 6.14085 0.117291C6.15024 0.361423 6.14555 0.610249 6.14555 0.85438Z" fill="white"/>
<path d="M11.1409 5.85433C11.385 5.85433 11.6338 5.84964 11.8779 5.85903C11.9765 5.86372 12 5.83086 11.9953 5.73696C11.9296 4.41302 11.4836 3.23461 10.6526 2.20644C10.5728 2.10785 10.4883 2.01865 10.4085 1.92475C10.3709 1.8778 10.3427 1.86372 10.2911 1.91536C9.9249 2.28625 9.5587 2.65245 9.18781 3.01865C9.13616 3.0656 9.15025 3.09377 9.18781 3.14071C9.78405 3.80269 10.1362 4.58203 10.2535 5.46466C10.2629 5.55386 10.2817 5.64306 10.277 5.73226C10.2723 5.84025 10.3193 5.85902 10.4179 5.85433C10.6573 5.84964 10.9014 5.85433 11.1409 5.85433Z" fill="white"/>
<path d="M0.868553 5.85432C1.11268 5.85432 1.35212 5.84962 1.59625 5.85901C1.69015 5.86371 1.72301 5.83554 1.72771 5.73695C1.76057 5.1454 1.9155 4.58671 2.18311 4.0562C2.35212 3.72756 2.554 3.42239 2.80283 3.15009C2.85447 3.09375 2.85916 3.06089 2.80283 2.99986C2.44132 2.64305 2.08452 2.28624 1.72771 1.92474C1.67137 1.8684 1.6432 1.8684 1.59156 1.92944C0.610338 3.00925 0.0845158 4.28155 0.00470376 5.74164C8.82149e-06 5.83554 0.0281775 5.85901 0.117379 5.85901C0.366206 5.84962 0.619727 5.85432 0.868553 5.85432Z" fill="white"/>
</g>
<defs>
<clipPath id="clip0_0_29">
<rect width="12" height="12" fill="white" transform="matrix(-1 0 0 1 12 0)"/>
</clipPath>
</defs>
</svg>
