<svg width="24" height="24" viewBox="0 0 24 24" fill="none" xmlns="http://www.w3.org/2000/svg">
<rect width="24" height="24" rx="4" fill="#0F1010"/>
<rect x="3" y="5" width="18" height="12" rx="2" fill="#16181D"/>
<rect x="6" y="16" width="1" height="3" rx="0.5" fill="#16181D"/>
<rect x="17" y="16" width="1" height="3" rx="0.5" fill="#16181D"/>
<path d="M6 9.73352V9.15288C6.63868 9.09958 7.08411 9.01122 7.33631 8.8878C7.58851 8.76157 7.77683 8.46564 7.9013 8H8.59893V14H7.65565V9.73352H6Z" fill="white"/>
<path d="M11.753 9.55259H12.7798V10.4698H11.753V9.55259ZM11.753 13.0827H12.7798V14H11.753V13.0827Z" fill="white"/>
<path d="M14.4011 9.73352V9.15288C15.0398 9.09958 15.4852 9.01122 15.7374 8.8878C15.9896 8.76157 16.1779 8.46564 16.3024 8H17V14H16.0567V9.73352H14.4011Z" fill="white"/>
</svg>
