<svg width="12" height="12" viewBox="0 0 12 12" fill="none" xmlns="http://www.w3.org/2000/svg">
<g clip-path="url(#clip0_0_98)">
<path d="M7.98596 3.01514C8.74854 3.10863 9.4269 3.35172 10.0351 3.77712C11.1345 4.54377 11.7942 5.60026 11.9579 6.93255C12.2292 9.08292 10.9567 11.1071 8.89357 11.7615C7.25146 12.2851 5.75906 11.9532 4.45848 10.8172C3.92047 10.3498 3.54152 9.77011 3.28421 9.11097C3.27017 9.07357 3.25614 9.03618 3.23742 9.00345C3.19532 8.93333 3.12047 8.94736 3.05965 8.95203C2.98947 8.95671 3.00818 9.01748 3.00818 9.05955C3.00818 9.21849 3.01286 9.37743 3.00351 9.53637C2.99883 9.62986 3.03625 9.66726 3.12047 9.66726C3.12514 9.66726 3.12982 9.66726 3.12982 9.66726C3.20935 9.69064 3.31696 9.63921 3.3731 9.70933C3.42924 9.77946 3.3731 9.87295 3.3731 9.96177C3.37778 10.2049 3.37778 10.4433 3.3731 10.6864C3.3731 10.7705 3.40117 10.8079 3.48538 10.8126C3.6538 10.8172 3.82222 10.8266 3.98596 10.8266C4.09356 10.8266 4.14035 10.8546 4.12631 10.9762C4.10292 11.238 4.1076 11.2426 3.84561 11.2333C2.88187 11.2052 1.92748 11.1024 0.99181 10.8593C0.70643 10.7845 0.435085 10.6817 0.201167 10.4994C0.0561374 10.3872 -0.0140381 10.2469 -0.0140381 10.0553C-0.00935972 7.09617 -0.00935972 4.13707 -0.0140381 1.1733C-0.0140381 1.00034 0.0467806 0.87412 0.173096 0.761927C0.388301 0.574938 0.645611 0.476769 0.912278 0.397299C1.46432 0.229009 2.03508 0.149539 2.61052 0.0887676C3.42924 -5.20479e-05 4.25263 -0.0234256 5.07134 -5.20488e-05C6.03509 0.0420204 6.98011 0.116816 7.90643 0.355226C8.14503 0.415998 8.37427 0.495468 8.59415 0.612336C8.68772 0.663758 8.77193 0.724529 8.84678 0.799325C8.94971 0.897494 9.00585 1.01436 9.00117 1.16395C8.99649 1.51456 8.99649 1.86516 9.00117 2.21576C9.00585 2.38873 8.93567 2.5243 8.80468 2.63181C8.59883 2.80478 8.35555 2.89827 8.1076 2.97774C8.07953 2.98709 8.04678 2.99644 7.98596 3.01514ZM3.38245 7.49352C3.39649 7.66181 3.4152 7.83945 3.42924 8.01241C3.43392 8.05449 3.43392 8.09656 3.49473 8.07318C3.79415 7.96567 4.03275 8.17135 4.14503 8.39106C4.36491 8.82114 4.58947 9.24654 4.80935 9.67661C4.94971 9.94775 4.91696 10.1768 4.70643 10.3918C4.65965 10.4433 4.65965 10.4666 4.71111 10.5134C5.10877 10.8733 5.55789 11.1491 6.05848 11.3361C6.13333 11.3642 6.1614 11.3642 6.18011 11.2707C6.23158 11.0136 6.4421 10.85 6.70877 10.85C7.23275 10.85 7.75204 10.85 8.27602 10.85C8.53333 10.85 8.74386 11.0136 8.79532 11.266C8.81403 11.3689 8.85146 11.3595 8.92631 11.3315C9.42222 11.1398 9.87134 10.8687 10.2643 10.5134C10.3205 10.462 10.3205 10.4386 10.269 10.3872C10.0678 10.1815 10.0351 9.93372 10.1708 9.68129C10.2363 9.55974 10.2971 9.4382 10.3626 9.32133C10.5357 8.9941 10.6994 8.6622 10.8772 8.33964C11.0082 8.10123 11.214 8.01241 11.476 8.07786C11.5509 8.09656 11.5509 8.05916 11.5602 8.00774C11.607 7.67116 11.6023 7.33458 11.5602 6.998C11.5509 6.9232 11.5322 6.9045 11.4573 6.92788C11.3029 6.9793 11.1672 6.93723 11.0363 6.84841C10.9333 6.77361 10.8725 6.67077 10.8164 6.56325C10.5965 6.13785 10.3766 5.71245 10.1567 5.28705C10.0351 5.05799 10.0772 4.80556 10.2643 4.60922C10.3158 4.5578 10.3158 4.52975 10.2596 4.483C9.86666 4.11837 9.41286 3.84724 8.91228 3.65558C8.84678 3.6322 8.81403 3.62285 8.79532 3.71635C8.73918 3.98281 8.53333 4.14175 8.26199 4.14175C7.74269 4.14175 7.22339 4.14175 6.70877 4.14175C6.4421 4.14175 6.23158 3.97813 6.18011 3.72102C6.1614 3.62753 6.12865 3.6322 6.05848 3.65558C5.55789 3.84724 5.10877 4.11837 4.71111 4.483C4.65965 4.52975 4.66432 4.55312 4.71111 4.59987C4.9076 4.79621 4.94503 5.04397 4.81871 5.2964C4.7345 5.46937 4.64093 5.63298 4.55672 5.80595C4.41169 6.08643 4.27134 6.36691 4.12163 6.6474C3.98596 6.89515 3.77544 6.98865 3.51813 6.9232C3.45263 6.90918 3.43392 6.9232 3.42924 6.98397C3.4152 7.14759 3.39649 7.31588 3.38245 7.49352ZM4.59415 1.87451C4.88421 1.86049 5.26316 1.84646 5.64678 1.83244C6.24093 1.80906 6.83509 1.73894 7.41988 1.6174C7.78479 1.5426 8.14035 1.44911 8.46783 1.26212C8.63626 1.16395 8.63626 1.10318 8.46316 1.00501C8.22924 0.869445 7.97193 0.7853 7.70994 0.719854C6.61052 0.444046 5.48304 0.401974 4.36023 0.401974C4.00935 0.401974 3.65848 0.411323 3.3076 0.434697C2.81169 0.472094 2.31579 0.514167 1.82456 0.607661C1.39883 0.687131 0.977775 0.775951 0.589471 0.981639C0.519295 1.01904 0.416371 1.04708 0.42105 1.14058C0.42105 1.23407 0.523974 1.26212 0.594149 1.29484C0.912278 1.46313 1.2538 1.54728 1.6 1.62207C2.55906 1.82309 3.52748 1.85581 4.59415 1.87451ZM4.50058 3.00112C4.50058 2.99177 4.50058 2.98242 4.50058 2.97307C4.77661 2.97307 5.05263 2.97774 5.32865 2.97307C5.50643 2.96839 5.68421 2.95437 5.86666 2.94969C5.95555 2.94502 6.00234 2.9123 5.99766 2.81413C5.9883 2.66921 5.99766 2.5243 5.99766 2.38405C5.99766 2.21109 5.99298 2.20641 5.81988 2.22511C5.41754 2.26251 5.01052 2.27186 4.60818 2.27186C4.13567 2.27186 3.66783 2.26719 3.19532 2.22511C3.02222 2.21109 3.02222 2.21109 3.02222 2.38873C3.02222 2.5243 3.03158 2.65986 3.02222 2.79543C3.01286 2.90762 3.05965 2.94969 3.16725 2.94969C3.60234 2.96372 4.05146 2.98242 4.50058 3.00112ZM2.95204 6.29212C3.14386 6.29679 3.14386 6.29679 3.19532 6.15188C3.24678 6.00228 3.30292 5.85269 3.36374 5.7031C3.39181 5.63766 3.38713 5.60961 3.30292 5.60026C2.99415 5.57221 2.6807 5.54884 2.37193 5.51144C1.72163 5.42729 1.07602 5.33847 0.472512 5.05332C0.407015 5.02527 0.388301 5.03929 0.388301 5.10474C0.388301 5.23563 0.397658 5.3712 0.388301 5.50209C0.378944 5.62831 0.435085 5.70778 0.542687 5.76387C0.67836 5.83867 0.823389 5.89944 0.973096 5.94619C1.63275 6.15188 2.31111 6.23602 2.95204 6.29212ZM2.94737 8.53598C3.11579 8.54066 3.11111 8.54066 3.08304 8.40041C3.05497 8.2555 3.02222 8.11058 3.01754 7.96099C3.01286 7.85815 2.9614 7.80673 2.85848 7.80673C2.62456 7.79738 2.39064 7.76465 2.1614 7.73193C1.58596 7.64778 1.01052 7.55897 0.481868 7.30186C0.416371 7.26913 0.388301 7.27848 0.392979 7.35328C0.397658 7.48417 0.397658 7.61974 0.392979 7.75063C0.383623 7.87217 0.439763 7.95164 0.538009 8.00774C0.669003 8.08253 0.809354 8.1433 0.954383 8.18538C1.60935 8.39106 2.28772 8.47521 2.94737 8.53598ZM0.392979 6.45106C0.392979 6.82503 0.411693 6.85776 0.767248 6.99332C0.785962 7.00267 0.804675 7.00735 0.823389 7.01202C1.49707 7.25511 2.19883 7.33458 2.90058 7.40937C2.9614 7.41405 2.99883 7.40002 2.99883 7.3299C2.99415 7.15227 3.02222 6.97463 3.04561 6.79699C3.05497 6.72687 3.04093 6.70349 2.96608 6.69414C2.73216 6.67544 2.49356 6.65207 2.25965 6.61467C1.64678 6.52585 1.03392 6.43703 0.467833 6.1659C0.42105 6.14253 0.392979 6.15655 0.392979 6.21265C0.392979 6.29679 0.392979 6.37159 0.392979 6.45106ZM2.99415 10.4292C2.99415 10.3498 2.98947 10.275 2.99415 10.1955C3.00818 10.088 2.95204 10.0599 2.85848 10.0506C2.69473 10.0366 2.53099 10.0225 2.37193 9.99917C1.72163 9.91502 1.07602 9.82153 0.472512 9.54105C0.411693 9.513 0.388301 9.52235 0.388301 9.59247C0.388301 9.69531 0.402336 9.79815 0.388301 9.89632C0.355553 10.116 0.463155 10.2423 0.654968 10.3124C0.67836 10.3217 0.701751 10.3357 0.729822 10.3451C1.4269 10.6162 2.1614 10.7004 2.90058 10.7798C2.97076 10.7892 2.99883 10.7565 2.99415 10.6864C2.99415 10.5975 2.99415 10.5134 2.99415 10.4292ZM2.99415 3.6883C2.99415 3.60883 2.98947 3.52468 2.99415 3.44521C2.99883 3.36107 2.96608 3.32367 2.88187 3.319C2.59181 3.30497 2.30643 3.26758 2.02573 3.2255C1.54854 3.15538 1.07134 3.06656 0.622219 2.88425C0.39298 2.79075 0.392979 2.79075 0.392979 3.03384C0.392979 3.47794 0.392979 3.47794 0.809354 3.64155C1.23041 3.80517 1.67017 3.89399 2.10994 3.95943C2.36257 3.99683 2.61988 4.0202 2.87251 4.05293C2.96608 4.06695 3.00351 4.03423 2.99415 3.94073C2.98947 3.85192 2.99415 3.76777 2.99415 3.6883ZM2.61988 4.79153C2.61988 4.70271 2.6152 4.61389 2.61988 4.52507C2.62456 4.45495 2.60117 4.41756 2.52631 4.41288C2.41403 4.40353 2.30175 4.38483 2.18947 4.37081C1.67485 4.30069 1.16023 4.20719 0.669003 4.02488C0.580114 3.99216 0.47719 3.88464 0.411693 3.93606C0.350874 3.98281 0.392979 4.11837 0.392979 4.21654C0.392979 4.58117 0.416371 4.61389 0.76257 4.75414C0.785962 4.76348 0.804675 4.77283 0.828067 4.77751C1.35672 4.97385 1.90877 5.05799 2.46549 5.12811C2.61988 5.14681 2.61988 5.14214 2.61988 4.9832C2.61988 4.91308 2.61988 4.8523 2.61988 4.79153ZM2.61988 9.25589C2.61988 9.16707 2.61988 9.07825 2.61988 8.98943C2.61988 8.93333 2.59649 8.90996 2.54035 8.90061C1.82924 8.80711 1.11813 8.72297 0.458477 8.41444C0.402336 8.38639 0.388301 8.41911 0.392979 8.46586C0.392979 8.57338 0.402336 8.68557 0.388301 8.79309C0.360231 8.99878 0.463155 9.1063 0.636254 9.18577C0.973097 9.33536 1.32865 9.42418 1.68889 9.48962C1.9462 9.53637 2.21286 9.57377 2.47017 9.60649C2.61052 9.62519 2.6152 9.61117 2.61988 9.4756C2.62456 9.40548 2.61988 9.33068 2.61988 9.25589ZM6.38128 2.53364C6.38128 2.61779 6.38596 2.70661 6.38128 2.79075C6.37661 2.86555 6.39064 2.89827 6.48421 2.88892C6.90994 2.84218 7.33099 2.77206 7.74737 2.66454C8 2.59909 8.24795 2.51962 8.47251 2.38405C8.53801 2.34666 8.60818 2.30926 8.60818 2.22044C8.61286 2.05682 8.60819 1.89321 8.61286 1.72959C8.61286 1.6735 8.58479 1.66415 8.53801 1.68752C8.47251 1.71557 8.41169 1.74829 8.3462 1.77634C7.78947 1.99138 7.20468 2.07552 6.61988 2.15499C6.33918 2.19239 6.39064 2.14097 6.38596 2.40743C6.38128 2.44482 6.38128 2.4869 6.38128 2.53364ZM2.61988 2.53832C2.61988 2.44482 2.61988 2.35133 2.61988 2.25784C2.61988 2.20174 2.60117 2.17369 2.54035 2.16902C2.42339 2.15967 2.31111 2.14097 2.19415 2.12694C1.66549 2.05215 1.14152 1.96333 0.640933 1.77167C0.561401 1.74362 0.47719 1.65012 0.411693 1.6922C0.355553 1.73427 0.392979 1.85114 0.392979 1.93528C0.392979 2.34666 0.397658 2.35601 0.785962 2.51027C1.34737 2.72998 1.94152 2.82348 2.53567 2.8936C2.61052 2.90295 2.61988 2.87022 2.61988 2.80945C2.61988 2.71596 2.61988 2.62714 2.61988 2.53832ZM5.65146 3.38444C5.38011 3.38444 5.10877 3.38444 4.83742 3.38444C4.39766 3.38444 3.95789 3.39847 3.51813 3.36107C3.43392 3.3564 3.38713 3.37042 3.39181 3.47326C3.40117 3.6322 3.40117 3.79114 3.39181 3.95008C3.38713 4.05293 3.43392 4.09033 3.52748 4.09033C3.83158 4.095 4.13567 4.10435 4.43976 4.1137C4.48187 4.1137 4.52397 4.10902 4.5614 4.08098C4.88421 3.80049 5.2538 3.56208 5.65146 3.38444ZM4.11228 4.51572C3.7614 4.49703 3.42924 4.47833 3.09707 4.45963C3.03625 4.45495 3.01286 4.48768 3.01286 4.54377C3.01286 4.72141 3.01286 4.89905 3.01286 5.08137C3.01286 5.14214 3.03625 5.17486 3.09707 5.17953C3.25146 5.18888 3.40585 5.20291 3.56023 5.21226C3.5883 5.21226 3.61169 5.20291 3.63041 5.17486C3.77076 4.9458 3.92982 4.73544 4.11228 4.51572ZM7.49941 11.2426C7.27485 11.2426 7.04561 11.2426 6.82105 11.2426C6.76491 11.2426 6.71345 11.2473 6.66199 11.266C6.59649 11.2894 6.56842 11.3408 6.56842 11.4109C6.56842 11.4857 6.6152 11.4998 6.67602 11.5091C6.80234 11.5278 6.92865 11.5558 7.05497 11.5699C7.48538 11.6166 7.91111 11.5932 8.33216 11.5091C8.42573 11.4904 8.43509 11.4343 8.41637 11.3642C8.3883 11.252 8.29006 11.2473 8.20117 11.2426C7.96725 11.238 7.73333 11.2426 7.49941 11.2426ZM7.49006 3.7444C7.71462 3.7444 7.94386 3.7444 8.16842 3.7444C8.22456 3.7444 8.27602 3.73972 8.32748 3.72102C8.39298 3.69765 8.42105 3.64623 8.42105 3.57611C8.42105 3.50131 8.36959 3.48729 8.31345 3.47794C8.18245 3.45456 8.05146 3.42652 7.92047 3.41717C7.49941 3.37509 7.07836 3.39379 6.66666 3.47794C6.6152 3.48729 6.56842 3.49664 6.56374 3.56676C6.56374 3.6322 6.57778 3.68363 6.63859 3.71167C6.69473 3.73972 6.75555 3.7444 6.82105 3.7444C7.04561 3.7444 7.27017 3.7444 7.49006 3.7444ZM4.49123 9.98047C4.49123 9.92905 4.47251 9.89165 4.44912 9.85425C4.27602 9.51767 4.09824 9.17642 3.92514 8.83984C3.869 8.73232 3.81286 8.6248 3.75204 8.52196C3.71462 8.45651 3.6538 8.44716 3.57894 8.47521C3.50409 8.50793 3.53216 8.55935 3.5462 8.61078C3.6959 9.13902 3.94386 9.62052 4.29006 10.0506C4.31813 10.0833 4.33684 10.1581 4.40234 10.1254C4.46783 10.102 4.48655 10.0412 4.49123 9.98047ZM4.49123 5.01124C4.49123 4.95047 4.4538 4.871 4.40701 4.8523C4.33684 4.82426 4.3228 4.8897 4.29473 4.9271C3.94386 5.35717 3.6959 5.84334 3.5462 6.37626C3.53684 6.41366 3.50877 6.46041 3.56023 6.48846C3.60234 6.51183 3.64912 6.53988 3.70058 6.50715C3.74269 6.48378 3.76608 6.44171 3.78479 6.39963C4.00468 5.97424 4.22456 5.55351 4.44444 5.12811C4.46783 5.09539 4.49123 5.05799 4.49123 5.01124ZM10.4982 9.96177C10.5076 10.0412 10.5263 10.0973 10.5918 10.1254C10.6339 10.1441 10.6526 10.1067 10.676 10.0786C11.0363 9.63454 11.2936 9.13902 11.448 8.5874C11.462 8.54533 11.4713 8.50326 11.4199 8.47988C11.3731 8.45651 11.3263 8.43781 11.2795 8.47521C11.2421 8.50326 11.2234 8.54066 11.2047 8.57805C10.9895 8.9941 10.7696 9.41483 10.5544 9.83088C10.531 9.87762 10.5123 9.92905 10.4982 9.96177ZM10.4982 5.01592C10.5123 5.04864 10.5216 5.09539 10.545 5.13746C10.6807 5.40392 10.8211 5.67038 10.9567 5.93684C11.0456 6.1098 11.1345 6.28277 11.2281 6.45106C11.2655 6.52118 11.3216 6.54455 11.4058 6.51183C11.4901 6.47443 11.4526 6.41833 11.4386 6.36691C11.2842 5.84334 11.0409 5.36185 10.6947 4.93645C10.6667 4.90373 10.6526 4.82893 10.5825 4.86165C10.5263 4.88503 10.5076 4.9458 10.4982 5.01592Z" fill="white"/>
<path d="M10.0912 7.54016C10.0912 6.17515 9.11812 5.06724 7.81754 4.9083C6.64795 4.76806 5.54853 5.40382 5.08537 6.50238C5.04327 6.60055 5.00584 6.63327 4.89824 6.5912C4.63157 6.48368 4.61754 6.54912 4.75789 6.25462C5.23508 5.2589 6.02105 4.66521 7.11578 4.51562C8.75789 4.29124 10.2784 5.47394 10.4748 7.11009C10.6713 8.73689 9.58128 10.1907 7.96724 10.4619C6.32046 10.7377 4.7111 9.54094 4.51461 7.88609C4.50993 7.85337 4.50526 7.82532 4.50058 7.7926C4.48654 7.7178 4.51461 7.68041 4.59882 7.67106C4.88888 7.64768 4.88888 7.64768 4.93099 7.92817C5.09473 9.00335 6.01169 9.91025 7.09707 10.0598C8.50993 10.2562 9.75438 9.38668 10.0491 7.98894C10.0865 7.82532 10.0959 7.65703 10.0912 7.54016Z" fill="white"/>
<path d="M9.18829 7.45142C9.18829 7.58231 9.14618 7.64776 9.06665 7.67581C8.68303 7.80203 8.43507 8.08718 8.19648 8.39104C8.00466 8.6388 7.8456 8.90526 7.7146 9.19042C7.66782 9.28391 7.62104 9.37273 7.49472 9.37273C7.36841 9.37273 7.32162 9.28391 7.27952 9.19042C7.06899 8.76502 6.82104 8.36767 6.47952 8.03109C6.32513 7.8815 6.15671 7.7506 5.94618 7.68516C5.86197 7.65711 5.81051 7.59634 5.80583 7.50284C5.80115 7.40935 5.84326 7.33923 5.92747 7.31118C6.3111 7.18496 6.56373 6.89981 6.79765 6.59595C6.98946 6.34819 7.14384 6.08173 7.27952 5.79657C7.3263 5.70308 7.37308 5.61426 7.4994 5.61426C7.62572 5.61426 7.6725 5.70308 7.7146 5.79657C7.92513 6.23132 8.18244 6.63335 8.52864 6.96993C8.67367 7.11017 8.83741 7.23171 9.0339 7.29716C9.13215 7.32988 9.18829 7.39065 9.18829 7.45142ZM8.50525 7.47947C8.49121 7.46545 8.47718 7.45142 8.45846 7.4374C8.07484 7.14289 7.79881 6.75956 7.55554 6.34819C7.51343 6.27339 7.49004 6.25469 7.43858 6.34351C7.19531 6.75956 6.9146 7.14757 6.5263 7.4374C6.47016 7.47947 6.4842 7.50752 6.53098 7.54024C6.9146 7.83475 7.19531 8.2134 7.4339 8.62945C7.47601 8.70425 7.4994 8.72294 7.55086 8.63412C7.79414 8.21808 8.07484 7.83475 8.46314 7.53557C8.48186 7.52622 8.50525 7.51687 8.50525 7.47947Z" fill="white"/>
<path d="M4.78127 7.32986C4.71578 7.24572 4.50993 7.42336 4.50993 7.20832C4.50993 7.11015 4.45379 6.92316 4.62221 6.90447C4.82338 6.88109 4.93098 6.95589 4.93098 7.04938C4.92162 7.29247 4.89823 7.33454 4.78127 7.32986Z" fill="white"/>
<path d="M5.81988 4.50633C5.81988 4.69799 5.81988 4.69799 5.61871 4.69799C5.4035 4.69799 5.42689 4.71202 5.42689 4.48763C5.42689 4.30999 5.42689 4.30999 5.63742 4.30999C5.81988 4.30532 5.81988 4.30532 5.81988 4.50633Z" fill="white"/>
<path d="M9.56258 4.50633C9.56258 4.69799 9.56258 4.69799 9.36141 4.69799C9.1696 4.69799 9.1696 4.69799 9.17427 4.49698C9.17427 4.28662 9.16024 4.30999 9.38948 4.30999C9.56258 4.30532 9.56258 4.30532 9.56258 4.50633Z" fill="white"/>
<path d="M4.13566 7.47947C4.13566 7.68516 4.13566 7.68516 3.94852 7.68516C3.74268 7.68516 3.74268 7.68516 3.74268 7.48882C3.74268 7.29248 3.74268 7.29248 3.93917 7.29248C4.13566 7.29716 4.13566 7.29716 4.13566 7.47947Z" fill="white"/>
<path d="M11.2468 7.49827C11.2468 7.68994 11.2468 7.68994 11.0456 7.68994C10.8351 7.68994 10.8585 7.70396 10.8538 7.47958C10.8538 7.30194 10.8538 7.30194 11.0643 7.30194C11.2468 7.29726 11.2468 7.29726 11.2468 7.49827Z" fill="white"/>
<path d="M5.6234 10.2891C5.81989 10.2891 5.81989 10.2891 5.81989 10.4854C5.81989 10.6817 5.81989 10.6817 5.60937 10.6817C5.42691 10.6817 5.42691 10.6817 5.42691 10.4714C5.42691 10.2891 5.42691 10.2891 5.6234 10.2891Z" fill="white"/>
<path d="M9.37543 10.6817C9.16959 10.6817 9.16959 10.6817 9.16959 10.4854C9.16959 10.2937 9.16959 10.2937 9.36608 10.2937C9.55789 10.2937 9.55789 10.2937 9.55789 10.49C9.56257 10.6817 9.56257 10.6817 9.37543 10.6817Z" fill="white"/>
<path d="M4.48654 1.70156C3.75672 1.71559 3.00818 1.67819 2.269 1.58469C2.04912 1.55665 1.82923 1.52392 1.61871 1.44913C1.55789 1.42575 1.49239 1.40238 1.44093 1.36498C1.25847 1.22942 1.26315 1.0097 1.45964 0.892836C1.65145 0.775969 1.87602 0.743245 2.0959 0.710522C3.19999 0.542233 4.30876 0.546907 5.41754 0.574956C5.99765 0.593655 6.57777 0.631052 7.14385 0.74792C7.25613 0.771294 7.37309 0.799342 7.47602 0.850764C7.59298 0.906861 7.69122 0.981656 7.69122 1.13125C7.69122 1.28084 7.59765 1.35563 7.48069 1.41173C7.29356 1.50055 7.09707 1.53327 6.8959 1.56132C6.10058 1.67351 5.30526 1.71559 4.48654 1.70156ZM2.10526 1.12657C3.01286 1.37433 6.29707 1.36498 6.94268 1.1219C5.31461 0.897511 3.70993 0.892837 2.10526 1.12657Z" fill="white"/>
</g>
<defs>
<clipPath id="clip0_0_98">
<rect width="12" height="12" fill="white"/>
</clipPath>
</defs>
</svg>
