<svg width="12" height="12" viewBox="0 0 12 12" fill="none" xmlns="http://www.w3.org/2000/svg">
<g clip-path="url(#clip0_0_116)">
<path d="M8.97648 6.75583C8.98639 6.8779 8.97152 7.00936 8.94178 7.14081C8.81291 7.74175 8.46595 8.01405 7.81663 8.061C7.01861 8.11734 6.22059 8.18307 5.42258 8.2441C5.14005 8.26757 4.85256 8.28166 4.57004 8.30513C4.41638 8.31922 4.41638 8.32391 4.50064 8.44128C4.98144 9.11264 5.45727 9.78401 5.93807 10.4507C6.18094 10.7887 6.23051 11.1502 6.02233 11.5117C5.65554 12.1549 4.72865 12.1737 4.26272 11.5446C4.00002 11.1878 3.74228 10.8216 3.47958 10.4601C3.17722 10.0375 2.87487 9.61969 2.57747 9.19715C2.5279 9.12673 2.49321 9.10795 2.40399 9.1549C1.37301 9.68541 0.178462 9.061 0.0148931 7.98119C-0.0792829 7.37086 0.173505 6.8779 0.703865 6.52109C1.02605 6.30513 1.35318 6.10325 1.68032 5.89668C1.76458 5.84504 1.82902 5.77931 1.87363 5.69011C2.49321 4.48823 3.1227 3.30044 3.73732 2.10325C3.95046 1.68541 4.40647 1.53048 4.81291 1.57743C5.2937 1.63377 5.71006 1.84034 6.09668 2.09856C6.93435 2.66194 7.5688 3.39433 8.08924 4.22062C8.4709 4.82626 8.7683 5.46476 8.91204 6.15959C8.9517 6.35208 8.98144 6.54926 8.97648 6.75583ZM4.06942 2.91546C4.06446 3.12673 4.09916 3.35208 4.16359 3.56804C4.57995 4.9671 5.39779 6.11264 6.58243 7.02814C6.88478 7.26288 7.22183 7.45067 7.60349 7.53518C7.89593 7.60091 8.13385 7.50701 8.29246 7.26757C8.36186 7.16898 8.39655 7.0563 8.41638 6.93893C8.48082 6.59621 8.43621 6.25818 8.32716 5.92954C7.88602 4.57274 7.06322 3.45537 5.89346 2.56804C5.5911 2.33799 5.24909 2.1549 4.86248 2.07978C4.46099 2.00466 4.16359 2.20184 4.08924 2.58213C4.06942 2.68541 4.06942 2.79339 4.06942 2.91546ZM6.58738 7.65724C5.0657 6.58682 4.06942 5.20654 3.59358 3.47884C3.58367 3.49292 3.57871 3.50231 3.57375 3.5117C3.16235 4.30513 2.75095 5.09856 2.33955 5.89199C2.31477 5.93893 2.31973 5.98119 2.35442 6.02344C2.78565 6.61968 3.21192 7.22062 3.64315 7.81687C3.66793 7.85443 3.70263 7.8779 3.75715 7.87321C3.85132 7.86382 3.9455 7.86382 4.03968 7.85443C4.74847 7.80278 5.45232 7.74645 6.16111 7.6948C6.2999 7.68072 6.43373 7.67133 6.58738 7.65724ZM1.67041 8.84973C1.83398 8.85912 2.01241 8.81687 2.17598 8.71828C2.49816 8.52109 2.81539 8.31452 3.13261 8.11264C3.18714 8.07978 3.18714 8.04692 3.15244 7.99527C2.76087 7.46006 2.37921 6.92485 1.99259 6.38494C1.95294 6.3286 1.9232 6.32391 1.86372 6.36147C1.57127 6.55396 1.27388 6.73706 0.986392 6.92954C0.584905 7.19715 0.426293 7.65255 0.570036 8.07508C0.733604 8.54457 1.14996 8.84973 1.67041 8.84973ZM3.73732 8.36616C3.68776 8.36147 3.64315 8.37555 3.60349 8.39903C3.41018 8.52109 3.22183 8.64785 3.02852 8.76522C2.96409 8.80748 2.95417 8.84504 2.99878 8.90607C3.57375 9.70419 4.14376 10.5023 4.71873 11.3004C4.88726 11.5305 5.1797 11.5774 5.41762 11.4272C5.64067 11.2864 5.69519 10.9953 5.54153 10.7605C5.45727 10.6338 5.3631 10.5164 5.27883 10.3896C4.82282 9.75114 4.36681 9.11264 3.9108 8.47415C3.86619 8.4225 3.8315 8.34738 3.73732 8.36616Z" fill="white"/>
<path d="M9.10535 3.08456C9.10535 2.9531 9.145 2.88268 9.22431 2.83573C9.78441 2.48832 10.3395 2.1409 10.9046 1.79348C11.0434 1.70897 11.197 1.73714 11.2764 1.85451C11.3606 1.97658 11.3309 2.11742 11.1871 2.21132C10.6369 2.55874 10.0818 2.89677 9.53162 3.23949C9.43744 3.29583 9.33831 3.30991 9.23918 3.25357C9.14996 3.20663 9.10535 3.1362 9.10535 3.08456Z" fill="white"/>
<path d="M11.6927 5.14557C11.4697 5.10801 11.2169 5.06576 10.9641 5.02351C10.5576 4.95308 10.1512 4.88266 9.74971 4.81224C9.6258 4.78876 9.53162 4.73712 9.5118 4.61036C9.49197 4.49768 9.53658 4.40848 9.64067 4.35214C9.71997 4.30989 9.80919 4.32397 9.89346 4.33806C10.1562 4.38031 10.4189 4.42726 10.6816 4.47421C11.0434 4.53524 11.4052 4.59628 11.7621 4.662C11.9207 4.69017 12.0099 4.79346 11.9951 4.92961C11.9852 5.06106 11.8761 5.14557 11.6927 5.14557Z" fill="white"/>
<path d="M8.57995 0.267646C8.53534 0.690181 8.49073 1.09863 8.44612 1.50239C8.4263 1.6714 8.41143 1.83572 8.38664 2.00004C8.36186 2.15027 8.2429 2.23948 8.10412 2.2207C7.96533 2.20661 7.86124 2.08924 7.87611 1.9437C7.93559 1.37093 8.00003 0.793467 8.06942 0.220697C8.08925 0.0704625 8.2082 -0.0234342 8.34203 -0.00934968C8.49073 0.0188193 8.58491 0.131495 8.57995 0.267646Z" fill="white"/>
<path d="M5.80917 3.84033C6.3891 3.84033 6.86989 4.15019 7.07807 4.65723C7.27138 5.13611 7.13259 5.6854 6.72615 6.04221C6.68154 6.07977 6.63197 6.11733 6.57745 6.15019C6.45353 6.22531 6.30484 6.20183 6.22553 6.09855C6.13631 5.98587 6.15614 5.84972 6.28005 5.75582C6.44362 5.63845 6.56754 5.49761 6.61215 5.30512C6.69145 4.97648 6.59728 4.69949 6.31971 4.48822C6.07187 4.30043 5.70508 4.27695 5.42256 4.42719C5.21933 4.53517 5.07559 4.51639 4.99133 4.38024C4.90707 4.23939 4.96655 4.10324 5.17472 3.99526C5.36308 3.88728 5.5663 3.84033 5.80917 3.84033Z" fill="white"/>
</g>
<defs>
<clipPath id="clip0_0_116">
<rect width="12" height="12" fill="white"/>
</clipPath>
</defs>
</svg>
