<svg width="24" height="24" viewBox="0 0 24 24" fill="none" xmlns="http://www.w3.org/2000/svg">
<rect width="24" height="24" rx="4" fill="#0F1010"/>
<path d="M17.9994 11.7741V11.7495C17.9994 11.6961 17.9946 11.6427 17.9904 11.5946C17.9856 11.51 17.9784 11.4247 17.9676 11.3274C17.9586 11.2464 17.9484 11.1635 17.9358 11.0873C17.9232 11.0002 17.9082 10.9107 17.8896 10.8309C17.855 10.6484 17.8104 10.468 17.7558 10.2905V10.2863C17.7366 10.2262 17.7174 10.1614 17.6958 10.1062C17.6569 9.98028 17.6116 9.85644 17.5603 9.73509C17.5405 9.68645 17.5201 9.63962 17.5003 9.59159L17.4847 9.55676C17.4577 9.49672 17.4307 9.43668 17.4043 9.38444C17.3605 9.28957 17.3119 9.1971 17.2615 9.10524C17.2303 9.048 17.1971 8.98976 17.1619 8.93051C17.0965 8.82244 17.0293 8.71376 16.9579 8.61169C16.9099 8.54264 16.8619 8.47479 16.8127 8.40874C16.6566 8.19666 16.4856 7.99601 16.3009 7.80831C16.2547 7.75968 16.2085 7.71344 16.1677 7.67682C16.0843 7.59516 15.9979 7.5153 15.9097 7.44145L15.8881 7.42223C15.8047 7.35138 15.7213 7.28354 15.6283 7.21449C15.6092 7.19899 15.5891 7.18455 15.5683 7.17125C15.4838 7.10581 15.3974 7.04516 15.3098 6.98812C15.2943 6.97739 15.2783 6.96756 15.2618 6.9587C15.1957 6.91237 15.1272 6.86967 15.0566 6.83081C14.9966 6.79178 14.9336 6.75756 14.8556 6.71553C14.7776 6.6735 14.6876 6.62727 14.6078 6.58944C14.5418 6.55642 14.4776 6.5294 14.3888 6.48737C14.2778 6.43933 14.165 6.3961 14.0594 6.35827C13.9964 6.33366 13.9304 6.31324 13.8668 6.29583C13.787 6.26701 13.7048 6.24179 13.6208 6.21837C13.6076 6.21329 13.5939 6.20927 13.58 6.20636C13.52 6.19015 13.4648 6.17574 13.4054 6.16373H13.3965C13.3402 6.14796 13.2831 6.13514 13.2255 6.12531C13.1943 6.11566 13.1624 6.10863 13.1301 6.10429C13.0701 6.09168 13.0101 6.08148 12.9423 6.07247C12.7571 6.04266 12.5704 6.02262 12.3831 6.01243C12.3459 6.01243 12.3051 6.00762 12.2847 6.00822C12.2247 6.00342 12.1647 6.00342 12.1179 6.00342C12.0466 5.99886 11.975 5.99886 11.9037 6.00342C11.8437 6.00342 11.7837 6.00342 11.7399 6.00822C11.6961 6.01303 11.6595 6.00822 11.6247 6.01303C11.4344 6.0242 11.2447 6.04544 11.0566 6.07667C10.9966 6.08568 10.9366 6.09469 10.8766 6.10729C10.8514 6.10755 10.8262 6.11037 10.8016 6.1157C10.7356 6.12831 10.6714 6.14152 10.6078 6.15953H10.6C10.5442 6.17094 10.4896 6.18415 10.4338 6.19976C10.4209 6.20239 10.4082 6.20621 10.396 6.21117C10.3078 6.23398 10.2214 6.261 10.1422 6.28802C10.0756 6.30844 10.0096 6.32885 9.95321 6.35167C9.84042 6.3925 9.72702 6.43573 9.59323 6.49337C9.52543 6.52399 9.46124 6.55341 9.40004 6.58404C9.31604 6.62366 9.23205 6.6681 9.13305 6.71973C9.07305 6.75396 9.00766 6.78878 8.96026 6.8188C8.8852 6.86049 8.8123 6.90598 8.74187 6.9551C8.72601 6.96372 8.71059 6.97314 8.69567 6.98332C8.60628 7.04336 8.51988 7.10341 8.43528 7.16825C8.41289 7.18294 8.39126 7.19877 8.37049 7.21569C8.28229 7.27933 8.1989 7.34778 8.1167 7.41863L8.0957 7.43785C7.99491 7.52251 7.91211 7.59936 7.83951 7.67141C7.79332 7.71464 7.75072 7.75787 7.70692 7.80171C7.52136 7.98942 7.34934 8.19006 7.19214 8.40214C7.14175 8.46938 7.09375 8.53663 7.04695 8.60448C6.97495 8.70775 6.90716 8.81643 6.83936 8.92751C6.80576 8.98755 6.77276 9.04279 6.74217 9.09803C6.69057 9.1905 6.64257 9.28297 6.60117 9.37243C6.57177 9.43247 6.54537 9.49252 6.51838 9.55256L6.50278 9.58738C6.48178 9.63542 6.46078 9.68225 6.44278 9.72788C6.39282 9.84556 6.34915 9.96581 6.31199 10.0881C6.28706 10.1525 6.26582 10.2183 6.24839 10.2851V10.2899C6.19471 10.4651 6.15065 10.6431 6.11639 10.8231C6.0966 10.9101 6.0816 10.9996 6.0702 11.0807C6.0588 11.1617 6.0474 11.2446 6.036 11.3376C6.0246 11.4307 6.0192 11.5082 6.0138 11.588C6.0096 11.6415 6.0072 11.6949 6.0048 11.7477V11.7729C6.0048 11.8492 6 11.9231 6 11.9993C6 12.0756 6 12.15 6.0048 12.2257V12.2515C6.0048 12.3043 6.0096 12.3578 6.0138 12.4058C6.0186 12.4905 6.0258 12.5757 6.0366 12.673C6.0456 12.754 6.0558 12.8369 6.0684 12.9132C6.081 13.0002 6.096 13.0897 6.11459 13.1695C6.14905 13.352 6.19352 13.5324 6.24779 13.7099V13.7141C6.26699 13.7742 6.28619 13.839 6.30779 13.8943C6.34678 14.0201 6.39203 14.144 6.44338 14.2653C6.46318 14.314 6.48358 14.3608 6.50338 14.4088L6.51898 14.4437C6.54597 14.5037 6.57297 14.5637 6.59937 14.616C6.64317 14.7108 6.69177 14.8033 6.74217 14.8952C6.77336 14.9552 6.80636 15.0105 6.84056 15.0681C6.91976 15.202 6.99415 15.3173 7.06615 15.4164C7.25557 15.6923 7.46856 15.9512 7.70272 16.1903C7.74892 16.2389 7.79512 16.2852 7.83591 16.3218C7.91991 16.4035 8.0057 16.4833 8.0939 16.5572C8.10055 16.5639 8.10757 16.5704 8.1149 16.5764C8.1983 16.6472 8.28169 16.7151 8.37469 16.7841C8.39392 16.7996 8.41395 16.814 8.43468 16.8274C8.51928 16.8928 8.60568 16.9535 8.69327 17.0105C8.70893 17.0212 8.72515 17.031 8.74187 17.0399C8.80784 17.0863 8.87635 17.129 8.94706 17.1678C9.00706 17.2068 9.07005 17.2411 9.14805 17.2831C9.22605 17.3251 9.31604 17.372 9.39524 17.4092C9.46124 17.4422 9.52603 17.4692 9.61423 17.5119C9.72522 17.5599 9.83802 17.6031 9.94361 17.6409C10.0072 17.6668 10.0732 17.6872 10.1338 17.7058C10.216 17.7334 10.2982 17.7586 10.3828 17.782C10.396 17.7871 10.4097 17.7912 10.4236 17.7941C10.4836 17.8103 10.5388 17.8247 10.5982 17.8367H10.606C10.6625 17.8525 10.7197 17.8653 10.7776 17.8751C10.8087 17.8848 10.8406 17.8918 10.873 17.8961C10.933 17.9087 10.993 17.9189 11.0608 17.9279C11.2458 17.9577 11.4322 17.9778 11.6193 17.988C11.6565 17.988 11.6943 17.9916 11.7243 17.9928C11.8167 17.9976 11.9091 18 11.9997 18C12.0903 18 12.1845 18 12.2631 17.9934C12.3033 17.9934 12.3435 17.9934 12.3783 17.9886C12.5685 17.9771 12.7579 17.9557 12.9459 17.9243C13.0059 17.9153 13.0659 17.9063 13.1259 17.8937C13.1507 17.8912 13.1752 17.8862 13.1991 17.8787C13.2651 17.8661 13.3293 17.8529 13.3929 17.8349H13.4007C13.4564 17.8235 13.511 17.8103 13.5668 17.7947C13.5798 17.7921 13.5924 17.7883 13.6046 17.7832C13.6928 17.7604 13.7792 17.7334 13.8584 17.7064C13.925 17.686 13.991 17.6656 14.0474 17.6427C14.1602 17.6019 14.2736 17.5587 14.4074 17.5016C14.4752 17.471 14.5394 17.4416 14.6012 17.411C14.6852 17.3714 14.7692 17.3269 14.8682 17.2753C14.9282 17.2411 14.9936 17.2062 15.041 17.1762C15.1161 17.1346 15.189 17.0891 15.2594 17.0399C15.2752 17.0313 15.2907 17.0219 15.3056 17.0117C15.395 16.9517 15.4814 16.8916 15.5659 16.8268C15.5882 16.8125 15.6096 16.7971 15.6301 16.7805C15.7183 16.7169 15.8017 16.6484 15.8839 16.5776L15.9049 16.5584C15.9931 16.4833 16.0795 16.4041 16.1563 16.329L16.1647 16.3206C16.2097 16.2798 16.2529 16.2377 16.2925 16.1951C16.5258 15.9563 16.738 15.6978 16.9267 15.4224C17.0017 15.3191 17.0761 15.2032 17.1565 15.0681C17.1901 15.0081 17.2231 14.9528 17.2537 14.8976C17.3047 14.8051 17.3533 14.7126 17.3947 14.6232C17.4241 14.5631 17.4511 14.5031 17.4781 14.4431L17.4937 14.4082C17.5147 14.3602 17.5357 14.3134 17.5537 14.2683C17.6047 14.1482 17.6496 14.0256 17.688 13.9009C17.7096 13.8408 17.7288 13.776 17.748 13.7141V13.7093C17.8018 13.5342 17.8459 13.3562 17.88 13.1762C17.8998 13.0891 17.9154 12.9996 17.9262 12.9186C17.937 12.8375 17.9496 12.7546 17.9604 12.6616C17.9712 12.5685 17.9778 12.4911 17.982 12.4112C17.9862 12.3584 17.9886 12.3049 17.991 12.2521V12.2263C17.991 12.15 17.9958 12.0762 17.9958 11.9999C17.9958 11.9237 18.0018 11.8504 17.9994 11.7741ZM16.8835 11.9999L17.4481 10.984C17.4595 11.044 17.4709 11.0993 17.4793 11.1593C17.4913 11.232 17.4997 11.3064 17.5093 11.3917C17.5189 11.4769 17.5249 11.5448 17.5291 11.6264C17.5333 11.6739 17.5351 11.7213 17.5381 11.788C17.5411 11.8546 17.5423 11.9291 17.5423 12.0005C17.5423 12.072 17.5423 12.1416 17.5375 12.2317C17.5375 12.2791 17.5333 12.3265 17.5291 12.3794C17.5249 12.4556 17.5183 12.5325 17.5081 12.6196C17.4997 12.6922 17.4913 12.7667 17.4781 12.8459C17.4703 12.9 17.4589 12.9576 17.4475 13.0152L16.8835 11.9999ZM16.4419 8.68374C16.4881 8.74378 16.5331 8.80803 16.5781 8.87347C16.6447 8.96834 16.7065 9.06801 16.7641 9.16408C16.7953 9.21812 16.8241 9.27156 16.8565 9.3256C16.9027 9.40846 16.9459 9.49131 16.9885 9.58258C17.0143 9.63482 17.0383 9.68705 17.0623 9.74109L17.0779 9.77652C17.0971 9.81975 17.1157 9.86118 17.1349 9.90801C17.1829 10.0233 17.2231 10.132 17.2585 10.2473C17.2675 10.2737 17.2753 10.3007 17.2843 10.3271L16.4839 11.7681H14.4464L13.8668 10.7306L13.4204 9.92242L13.8668 9.11424L14.444 8.0749H15.9085C15.9271 8.09351 15.9457 8.11033 15.9685 8.13074C16.139 8.30384 16.297 8.48884 16.4413 8.68434L16.4419 8.68374ZM13.0221 13.8474H10.984L10.4068 12.8081L9.95801 11.9999L10.4068 11.1917L10.984 10.1524H13.0209L13.598 11.1917L14.0468 11.9999L13.598 12.8081L13.0221 13.8474ZM14.222 6.91907C14.282 6.94729 14.342 6.97371 14.408 7.00614C14.4866 7.04276 14.564 7.08419 14.6534 7.13103C14.7056 7.15925 14.759 7.18747 14.8226 7.2283C14.8875 7.26483 14.9504 7.30492 15.011 7.34838C15.02 7.35499 15.0458 7.3706 15.056 7.3754C15.1388 7.42944 15.2192 7.48648 15.296 7.54712C15.3056 7.55433 15.329 7.57234 15.3398 7.57835L15.3632 7.59576C15.371 7.60176 15.3782 7.60837 15.386 7.61437H14.4464L14.0156 6.83381C14.081 6.86143 14.1476 6.88785 14.2184 6.92028L14.222 6.91907ZM10.7362 6.60565C10.7878 6.59124 10.8394 6.58103 10.9162 6.56542C10.9236 6.56301 10.9312 6.5612 10.939 6.56002L10.9672 6.55581C11.02 6.54381 11.0746 6.536 11.1472 6.52579C11.317 6.49679 11.4882 6.47675 11.6601 6.46575C11.6877 6.46575 11.7165 6.46215 11.7651 6.46095C11.8137 6.45975 11.8611 6.45734 11.9265 6.45674C11.9535 6.45674 11.9835 6.45674 12.0093 6.45674C12.0351 6.45674 12.0651 6.45674 12.1083 6.45674C12.1515 6.45674 12.2043 6.45674 12.2721 6.46155C12.3015 6.46155 12.3321 6.46155 12.3591 6.46575C12.5366 6.4764 12.7135 6.49644 12.8889 6.52579C12.9417 6.5336 12.9963 6.5414 13.0485 6.55281L13.0767 6.55702C13.0923 6.55963 13.1077 6.56324 13.1229 6.56782C13.1769 6.57803 13.2279 6.58824 13.2801 6.60265H13.2873C13.2959 6.60563 13.3047 6.60803 13.3137 6.60985C13.3365 6.61466 13.3599 6.62126 13.3833 6.62667L14.0468 7.84374L13.8602 8.17998L13.0203 9.69126H10.984L10.147 8.17938L9.96041 7.84374L10.627 6.63267C10.6498 6.62727 10.6732 6.62066 10.6966 6.61586C10.7055 6.61409 10.7144 6.61168 10.723 6.60865L10.7362 6.60565ZM8.68187 7.56634C8.69235 7.56071 8.70238 7.55429 8.71187 7.54712C8.79047 7.48708 8.87086 7.42704 8.96926 7.367C8.97928 7.36191 8.9889 7.35609 8.99806 7.34958C9.06309 7.30387 9.13059 7.26178 9.20025 7.22349C9.25065 7.19107 9.30404 7.16345 9.36764 7.12802C9.44564 7.08719 9.52363 7.04577 9.60763 7.00794C9.66763 6.97732 9.72762 6.9509 9.80442 6.91547C9.86442 6.88965 9.92921 6.86624 9.99221 6.84162L9.56383 7.61677H8.61828C8.62848 7.60897 8.63808 7.60116 8.64888 7.59396L8.68187 7.56634ZM6.74936 10.2419C6.78236 10.1344 6.82256 10.0257 6.86936 9.90681C6.88676 9.86358 6.90596 9.82155 6.92456 9.77832L6.94016 9.74289C6.96296 9.68886 6.98755 9.63662 7.01695 9.57778C7.05655 9.49312 7.09975 9.40966 7.14655 9.3256C7.17535 9.27216 7.20654 9.21872 7.23594 9.16768C7.29594 9.06861 7.35594 8.96894 7.42493 8.87227C7.46933 8.80803 7.51313 8.74558 7.56053 8.68194C7.70483 8.48737 7.86261 8.30319 8.0327 8.13074L8.0927 8.0737H9.55663L10.1338 9.11304L10.5826 9.92122L10.135 10.7306L9.55783 11.7699H7.52093L6.71937 10.3289C6.72717 10.3001 6.73737 10.2731 6.74936 10.2419ZM6.55677 13.0164C6.54538 12.9564 6.53398 12.9012 6.52558 12.8411C6.51358 12.7685 6.50518 12.694 6.49558 12.6087C6.48598 12.5235 6.47998 12.4556 6.47578 12.374C6.47158 12.3277 6.46978 12.2791 6.46678 12.2125C6.46378 12.1458 6.46258 12.0726 6.46258 12.0005C6.46258 11.9285 6.46258 11.8594 6.46738 11.7693C6.46738 11.7213 6.47158 11.6739 6.47578 11.621C6.47998 11.5448 6.48718 11.4679 6.49678 11.3809C6.50518 11.3082 6.51358 11.2338 6.52678 11.1545C6.53457 11.1005 6.54597 11.0428 6.55737 10.9852L7.12075 11.9999L6.55677 13.0164ZM7.44713 15.151C7.38054 15.0585 7.31334 14.9552 7.24254 14.8351C7.21134 14.7817 7.18254 14.7283 7.15015 14.6736C7.10395 14.5908 7.06075 14.5079 7.01815 14.4166C6.99235 14.3644 6.96835 14.3122 6.94436 14.2581L6.92876 14.2227C6.90956 14.1795 6.89096 14.1374 6.87176 14.0912C6.82376 13.9759 6.78356 13.8672 6.74816 13.752C6.73916 13.7255 6.73077 13.6985 6.72237 13.6721L7.52273 12.2311H9.55963L10.1368 13.2704L10.5856 14.0786L10.1368 14.8868L9.55963 15.9261H8.0933C8.0747 15.9075 8.0567 15.8907 8.0369 15.8709C7.81927 15.6483 7.62134 15.4072 7.44533 15.1504L7.44713 15.151ZM9.78702 17.0825C9.72702 17.0543 9.66703 17.0279 9.60043 16.9949C9.52243 16.9583 9.44444 16.9168 9.35504 16.87C9.30284 16.8418 9.24945 16.8136 9.18585 16.7727C9.1209 16.7362 9.05801 16.6961 8.99746 16.6526C8.98118 16.6432 8.96435 16.6348 8.94706 16.6274C8.86426 16.5734 8.78387 16.5163 8.70707 16.4557C8.69807 16.4491 8.67287 16.4299 8.66267 16.4245C8.65247 16.4191 8.64348 16.4095 8.63988 16.4077C8.63628 16.4059 8.62488 16.3951 8.61708 16.389H9.55543L9.98621 17.166C9.92441 17.1402 9.85662 17.1138 9.78702 17.0825ZM13.2729 17.3948C13.2213 17.4092 13.1697 17.4194 13.0929 17.435C13.0852 17.4374 13.0774 17.4392 13.0695 17.4404L13.0419 17.4446C12.9891 17.4566 12.9345 17.4644 12.8619 17.4746C12.6921 17.5036 12.5208 17.5237 12.3489 17.5347C12.3219 17.5347 12.2925 17.5389 12.2511 17.5389C12.08 17.5482 11.9086 17.5482 11.7375 17.5389C11.7081 17.5389 11.6775 17.5389 11.6505 17.5347C11.473 17.524 11.2962 17.504 11.1208 17.4746C11.068 17.4668 11.0134 17.459 10.9612 17.4476L10.933 17.4434C10.9174 17.4408 10.9019 17.4372 10.8868 17.4326C10.8328 17.4224 10.7818 17.4122 10.7296 17.3978H10.7224C10.7137 17.3948 10.7049 17.3924 10.696 17.3906C10.6732 17.3858 10.6498 17.3792 10.627 17.3738L9.95561 16.1621L10.1422 15.8258L10.9822 14.3146H13.0191L13.859 15.8264L14.0456 16.1621L13.3737 17.3732C13.3509 17.3786 13.3275 17.3852 13.3047 17.39C13.2957 17.3915 13.2869 17.3937 13.2783 17.3966L13.2729 17.3948ZM15.326 16.4341C15.3159 16.4397 15.3062 16.4462 15.2972 16.4533C15.2186 16.5133 15.1382 16.5734 15.041 16.6334C15.0304 16.6387 15.0201 16.6447 15.0104 16.6514C14.9455 16.6971 14.8782 16.7392 14.8088 16.7775C14.7584 16.8099 14.705 16.8376 14.6414 16.8724C14.5634 16.9138 14.4854 16.9547 14.4014 16.9925C14.3414 17.0231 14.2814 17.0525 14.2052 17.0849C14.1452 17.1108 14.0804 17.1342 14.0174 17.1588L14.4464 16.3842H15.386C15.3758 16.392 15.3662 16.3999 15.3554 16.4071L15.326 16.4341ZM17.2561 13.7574C17.2231 13.8648 17.1829 13.9735 17.1361 14.0924C17.1187 14.1356 17.0995 14.1777 17.0809 14.2209L17.0653 14.2563C17.0425 14.3104 17.0179 14.3626 16.9885 14.4214C16.9489 14.5061 16.9057 14.5896 16.8589 14.673C16.8301 14.7265 16.7989 14.7799 16.7683 14.8321C16.6963 14.9522 16.6297 15.0573 16.5607 15.154C16.3847 15.4108 16.1868 15.6519 15.9691 15.8745L15.9181 15.9267H14.4464L13.8668 14.8874L13.418 14.0792L13.8668 13.271L14.444 12.2317H16.4827L17.2825 13.6727C17.2735 13.7015 17.2651 13.7285 17.2549 13.7604L17.2561 13.7574Z" fill="white" stroke="white" stroke-width="0.6"/>
</svg>
